<?xml version="1.0" encoding="UTF-8" standalone="no"?>
<!DOCTYPE svg PUBLIC "-//W3C//DTD SVG 1.1//EN" "http://www.w3.org/Graphics/SVG/1.1/DTD/svg11.dtd">
<svg width="100%" height="100%" viewBox="0 0 1024 1024" version="1.1" xmlns="http://www.w3.org/2000/svg" xmlns:xlink="http://www.w3.org/1999/xlink" xml:space="preserve" xmlns:serif="http://www.serif.com/" style="fill-rule:evenodd;clip-rule:evenodd;stroke-linejoin:round;stroke-miterlimit:2;">
    <rect x="0" y="0" width="1024" height="1024" style="fill:rgb(7,1,65);fill-rule:nonzero;"/>
    <g transform="matrix(1,0,0,1,606,48)">
        <path d="M0,0L138,0L138,42L174,42L174,78L202,78L202,56L244,56L244,100L260,100L260,80C267.715,80.391 267.715,80.391 275.43,80.781C281.825,79.688 280.645,77.959 282,72C290.258,56.14 301.231,56.199 317.75,57.125C320.96,57.22 320.96,57.22 324.234,57.316C340,57.809 340,57.809 340,82L314,82C314.39,106.503 314.39,106.503 368,100L368,156L284,156L284,210C272.928,210.046 261.857,210.086 250.785,210.11C247.015,210.12 243.246,210.134 239.476,210.151C234.07,210.175 228.664,210.186 223.258,210.195C221.562,210.206 219.866,210.216 218.119,210.227C204.095,210.228 204.095,210.228 203.805,203.43C203.87,198.286 203.935,193.143 204,188L172,188L172,226L136,226L136,372L114,372L114,430L136,430L136,480C150.961,479.525 150.961,479.525 165.917,478.919C184.303,478.622 184.303,478.622 186,492C188.587,495.395 191.25,498.735 194,502C194.66,503.444 195.32,504.888 196,506.375C197.695,510.398 197.695,510.398 202.054,511.431C210.206,516.739 207.237,529.67 207.153,538.533C207.125,542.592 207.193,546.641 207.27,550.699C207.266,553.266 207.262,555.832 207.258,558.477C207.26,562.005 207.26,562.005 207.262,565.604C205.643,573.811 202.273,576.659 196,582C193.248,584.706 190.498,587.415 187.75,590.125C186.425,591.427 185.1,592.729 183.734,594.07C176.23,601.968 173.239,606.26 173.344,617.438C173.354,619.631 173.364,621.825 173.375,624.086C173.437,627.508 173.437,627.508 173.5,631C173.51,633.282 173.521,635.563 173.531,637.914C172.278,656.577 172.278,656.577 184,668C185.198,669.014 186.396,670.028 187.63,671.073C192.965,674.646 195.923,674.734 202.296,674.706C204.346,674.713 206.395,674.721 208.506,674.728C211.81,674.7 211.81,674.7 215.18,674.672C219.848,674.697 224.516,674.723 229.184,674.75C236.54,674.758 243.895,674.75 251.251,674.721C258.353,674.704 265.453,674.747 272.555,674.797C274.753,674.77 276.951,674.743 279.216,674.716C291.66,674.837 298.208,675.286 306,686C307.297,687.441 308.594,688.882 309.93,690.367C311.232,691.855 312.534,693.342 313.875,694.875C323.108,705.233 332.874,714.994 342.781,724.707C343.946,725.855 345.112,727.004 346.313,728.188C347.361,729.212 348.409,730.237 349.488,731.293C355.372,737.635 355.775,743.715 354,752C348.488,753.648 343.09,754.175 337.383,754.867C329.208,756.588 327.631,760.738 324,768C320.632,771.897 317.235,775.755 313.758,779.555C309.647,789.95 321.316,804.097 326.75,813C327.871,814.876 327.871,814.876 329.016,816.789C330.532,819.297 332.073,821.789 333.639,824.266C335.246,826.808 336.803,829.383 338.314,831.984C339.103,833.248 339.891,834.511 340.703,835.813C341.385,836.953 342.068,838.094 342.771,839.27C347.102,843.422 347.102,843.422 360,844L360,882C206.234,883.439 52.48,884.298 -144.439,884.259C-166.453,884.25 -188.466,884.252 -210.479,884.261C-236.793,884.272 -263.107,884.276 -289.42,884.27C-292.245,884.269 -295.069,884.268 -297.893,884.268C-299.279,884.267 -300.665,884.267 -302.093,884.267C-311.535,884.265 -320.976,884.268 -330.418,884.273C-397.638,884.302 -464.799,883.622 -532,882C-532,844 -532,844 -516,842C-511.531,837.795 -511.531,837.795 -508.734,832.008C-506.998,828.904 -506.998,828.904 -505.227,825.738C-504.079,823.556 -502.932,821.374 -501.75,819.125C-499.412,814.877 -497.074,810.63 -494.734,806.383C-493.053,803.269 -493.053,803.269 -491.338,800.092C-485.148,788.794 -478.829,777.504 -471,767.25C-464.979,759.118 -460.844,750.043 -456.469,740.953C-452.526,733.042 -450.86,733.752 -442.226,733.773C-440.144,733.773 -438.062,733.773 -435.917,733.773C-433.652,733.784 -431.388,733.794 -429.055,733.805C-425.596,733.809 -425.596,733.809 -422.068,733.813C-414.67,733.824 -407.273,733.85 -399.875,733.875C-394.874,733.885 -389.872,733.894 -384.871,733.902C-372.581,733.924 -360.29,733.959 -348,734L-348,708L-324,708L-324,690L-426,690L-426,178L-100,178L-100,100C-90.1,99.34 -80.2,98.68 -70,98C-69.34,90.08 -68.68,82.16 -68,74L-38,74L-38,40L0,40L0,0Z" style="fill:rgb(240,250,236);fill-rule:nonzero;"/>
    </g>
    <g transform="matrix(1,0,0,1,254,292)">
        <path d="M0,0C419.361,0 419.361,0 420.246,24.931C420.244,27.142 420.242,29.352 420.241,31.63C420.245,35.47 420.245,35.47 420.249,39.389C420.242,42.181 420.234,44.974 420.227,47.766C420.226,50.792 420.227,53.818 420.228,56.844C420.228,64.902 420.217,72.961 420.203,81.019C420.191,88.598 420.191,96.177 420.189,103.756C420.179,125.879 420.151,148.002 420.125,170.125C420.084,219.584 420.043,269.043 420,320L2,320C1.67,285.391 1.34,250.783 1,215.125C0.843,199.078 0.843,199.078 0.684,182.708C0.557,169.058 0.557,169.058 0.497,162.555C0.457,158.261 0.416,153.967 0.372,149.673C-0.128,99.78 0,49.901 0,0Z" style="fill:rgb(2,254,252);fill-rule:nonzero;"/>
    </g>
    <g transform="matrix(1,0,0,1,902,738)">
        <path d="M0,0C3,3.047 3,3.047 6,6.75C12.467,14.396 19.302,21.546 26.375,28.625C27.397,29.656 28.419,30.687 29.473,31.749C40.049,42.895 40.049,42.895 54,48C54.66,46.68 55.32,45.36 56,44C59.35,50.7 59.568,54.681 58,62C52.488,63.648 47.09,64.175 41.383,64.867C33.208,66.588 31.631,70.738 28,78C24.632,81.897 21.235,85.755 17.758,89.555C13.647,99.95 25.316,114.097 30.75,123C31.871,124.876 31.871,124.876 33.016,126.789C34.532,129.297 36.073,131.789 37.639,134.266C39.246,136.808 40.803,139.383 42.314,141.984C43.103,143.248 43.891,144.511 44.703,145.813C45.385,146.953 46.068,148.094 46.771,149.27C51.102,153.422 51.102,153.422 64,154L64,192C-89.766,193.439 -243.52,194.298 -440.439,194.259C-462.453,194.25 -484.466,194.252 -506.479,194.261C-532.793,194.272 -559.107,194.276 -585.42,194.27C-588.245,194.269 -591.069,194.268 -593.893,194.268C-595.279,194.267 -596.665,194.267 -598.093,194.267C-607.535,194.265 -616.976,194.268 -626.418,194.273C-693.638,194.302 -760.799,193.622 -828,192C-828,154 -828,154 -812,152C-807.531,147.795 -807.531,147.795 -804.734,142.008C-803.577,139.939 -802.419,137.87 -801.227,135.738C-800.079,133.556 -798.932,131.374 -797.75,129.125C-795.412,124.877 -793.074,120.63 -790.734,116.383C-789.614,114.307 -788.493,112.231 -787.338,110.092C-780.452,97.524 -773.322,85.274 -764.445,74.008C-761.665,69.827 -761.665,69.827 -760.117,63.805C-751.794,39.009 -732.343,43.556 -710,46C-718.954,61.594 -728.258,76.887 -738,92C-741.498,97.489 -744.988,102.982 -748.477,108.477C-750.872,112.232 -753.284,115.976 -755.711,119.711C-757.525,122.515 -757.525,122.515 -759.375,125.375C-760.455,127.033 -761.535,128.69 -762.648,130.398C-766.825,137.379 -770.362,144.725 -774,152L-10,152C-12.101,140.387 -12.101,140.387 -22.794,141.046C-25.179,141.087 -27.565,141.127 -30.023,141.169C-32.735,141.265 -35.447,141.361 -38.159,141.457C-41.06,141.52 -43.961,141.579 -46.862,141.633C-53.318,141.761 -59.772,141.917 -66.227,142.094C-82.955,142.543 -99.686,142.812 -116.418,143.091C-120.609,143.161 -124.799,143.232 -128.99,143.305C-189.012,144.343 -249.037,144.235 -309.065,144.2C-318.468,144.195 -327.871,144.193 -337.273,144.191C-370.87,144.186 -404.466,144.171 -438.063,144.147C-462.856,144.13 -487.65,144.118 -512.443,144.11C-514.096,144.109 -515.749,144.109 -517.452,144.108C-525.752,144.106 -534.052,144.103 -542.352,144.101C-610.235,144.08 -678.117,144.045 -746,144C-743.834,129.459 -742.944,129.745 -728.242,129.805C-726.182,129.809 -726.182,129.809 -724.081,129.813C-719.679,129.824 -715.277,129.85 -710.875,129.875C-707.897,129.885 -704.919,129.894 -701.941,129.902C-694.628,129.924 -687.314,129.959 -680,130C-681.034,128.938 -682.068,127.876 -683.133,126.781C-684.45,125.368 -685.768,123.956 -687.125,122.5C-689.109,120.412 -689.109,120.412 -691.133,118.281C-695.473,111.801 -693.267,108.534 -690,102C-684.313,101.313 -684.313,101.313 -677,101C-658.367,100.887 -658.367,100.887 -642,94L-632,94L-632,66L-622,66L-622,126C-606.662,126.402 -606.662,126.402 -593.625,122.75C-585.118,119.897 -580.284,119.858 -572,124L-572,116C-559.535,110.492 -545.436,110.768 -532,110L-532,122L-518,122C-518.804,118.226 -518.804,118.226 -519.625,114.375C-519.749,100.382 -502.841,101.434 -492,100C-490.255,99.742 -488.509,99.484 -486.711,99.219C-483.151,98.731 -479.576,98.351 -476,98L-476,78L-468,78L-468,94C-420.347,95.516 -420.347,95.516 -422,78C-421.34,77.34 -420.68,76.68 -420,76C-419.265,71.344 -418.595,66.676 -418,62C-412,62 -412,62 -410,84C-408.095,83.711 -406.19,83.423 -404.227,83.125C-401.718,82.754 -399.21,82.382 -396.625,82C-394.142,81.629 -391.66,81.257 -389.102,80.875C-383.282,80.158 -377.846,79.821 -372,80C-372.083,78.103 -372.165,76.205 -372.25,74.25C-372,68 -372,68 -368,64C-357.821,65.542 -357.749,68.211 -358,78C-356.118,77.567 -354.236,77.134 -352.297,76.688C-349.806,76.131 -347.316,75.574 -344.75,75C-342.29,74.443 -339.831,73.886 -337.297,73.313C-330.657,72.118 -324.722,71.752 -318,72L-318,64C-306.793,61.755 -295.636,61.346 -284.25,60.875C-282.301,60.789 -280.352,60.702 -278.344,60.613C-273.563,60.402 -268.782,60.198 -264,60C-263.893,65.292 -263.813,70.582 -263.75,75.875C-263.716,77.384 -263.683,78.894 -263.648,80.449C-263.547,91.773 -263.547,91.773 -268,94C-266.68,94.66 -265.36,95.32 -264,96C-262.281,105.361 -262.281,105.361 -268.602,107.711C-270.589,107.93 -272.577,108.149 -274.625,108.375C-282.187,109.275 -285.535,109.69 -292,114C-296.28,114.408 -300.578,114.628 -304.875,114.75C-318.057,115.333 -330.703,117.366 -343.625,120C-345.381,120.357 -347.136,120.713 -348.945,121.081C-357.721,122.797 -357.721,122.797 -366,126C-381.22,128.501 -396.628,128.217 -412,128L-412,134C-408.29,133.769 -404.582,133.514 -400.875,133.25C-397.777,133.041 -397.777,133.041 -394.617,132.828C-387.963,132.199 -387.963,132.199 -381.679,129.996C-373.063,127.757 -365.364,127.339 -356.516,127.242C-354.089,127.191 -354.089,127.191 -351.613,127.139C-346.492,127.034 -341.371,126.953 -336.25,126.875C-331.086,126.787 -325.922,126.694 -320.759,126.589C-317.556,126.525 -314.353,126.472 -311.15,126.429C-303.979,126.954 -303.979,126.954 -298,124C-294.384,123.802 -290.76,123.744 -287.138,123.741C-284.813,123.735 -282.488,123.729 -280.093,123.722C-276.284,123.728 -276.284,123.728 -272.398,123.734C-268.493,123.732 -268.493,123.732 -264.508,123.729C-258.971,123.726 -253.435,123.73 -247.898,123.739C-240.867,123.751 -233.836,123.744 -226.806,123.732C-220.045,123.723 -213.284,123.729 -206.523,123.734C-204.029,123.73 -201.534,123.726 -198.964,123.722C-183.877,123.762 -169.011,124.487 -154,126C-153.731,120.705 -153.533,115.423 -153.375,110.125C-153.291,108.616 -153.207,107.106 -153.121,105.551C-152.334,96.6 -152.334,96.6 -159.039,92.117C-160.676,92.079 -162.313,92.04 -164,92L-164,90C-167.085,90.232 -170.168,90.486 -173.25,90.75C-174.967,90.889 -176.684,91.028 -178.453,91.172C-184.12,91.851 -184.12,91.851 -189.781,93.953C-196.646,96.212 -203.078,97.147 -210.25,98C-221.85,99.439 -233.329,101.172 -244.828,103.266C-249.962,103.995 -254.823,104.131 -260,104C-259.63,92.539 -255.111,92.513 -244.5,91.5C-242.035,91.242 -239.571,90.984 -237.031,90.719C-234.711,90.482 -232.391,90.244 -230,90C-219.314,88.44 -217.872,86.384 -217.438,75.805C-217.363,74.202 -217.288,72.6 -217.211,70.949C-217.07,67.559 -216.929,64.168 -216.789,60.777C-216.084,45.69 -216.084,45.69 -204,46L-204,58C-202.09,57.856 -200.179,57.711 -198.211,57.563C-182.771,56.454 -167.491,55.71 -152,56L-152,44C-134.476,43.536 -116.954,43.181 -99.425,42.964C-91.285,42.86 -83.149,42.718 -75.011,42.491C-67.152,42.273 -59.297,42.154 -51.435,42.102C-48.441,42.066 -45.448,41.994 -42.455,41.885C-21.613,41.162 -11.988,43.619 -4,64C0.652,73.463 0.652,73.463 10,76C10.536,74.928 11.073,73.855 11.625,72.75C15.991,64.017 22.728,57.091 32,54C30.87,52.901 29.74,51.802 28.575,50.67C23.451,45.671 18.35,40.648 13.25,35.625C11.471,33.896 9.692,32.168 7.859,30.387C6.158,28.704 4.456,27.022 2.703,25.289C1.132,23.749 -0.439,22.21 -2.058,20.624C-6,16 -6,16 -8.169,10.544C-11.281,2.82 -17.71,3.732 -25.126,3.589C-26.968,3.549 -28.809,3.51 -30.707,3.468C-32.688,3.435 -34.669,3.402 -36.711,3.367C-39.761,3.305 -39.761,3.305 -42.873,3.241C-49.374,3.11 -55.874,2.993 -62.375,2.875C-66.78,2.789 -71.185,2.701 -75.59,2.613C-86.393,2.399 -97.196,2.195 -108,2L-108,0C-106.777,-0.021 -105.553,-0.041 -104.293,-0.062C-91.608,-0.278 -78.924,-0.507 -66.24,-0.745C-61.5,-0.831 -56.761,-0.915 -52.021,-0.995C-45.225,-1.11 -38.429,-1.237 -31.633,-1.367C-29.5,-1.401 -27.366,-1.434 -25.168,-1.468C-23.206,-1.508 -21.244,-1.548 -19.223,-1.589C-17.487,-1.62 -15.75,-1.652 -13.961,-1.684C-4.121,-2.47 -4.121,-2.47 0,0Z" style="fill:rgb(226,240,222);fill-rule:nonzero;"/>
    </g>
    <g transform="matrix(1,0,0,1,742,542)">
        <path d="M0,0C34.535,0 53.399,14.642 54.75,49.375C54.85,72.701 44.386,85.087 27.024,99.49C16.81,107.966 19.256,118.885 19.259,131.277C19.25,135.457 19.178,139.633 19.102,143.813C19.09,146.49 19.082,149.167 19.078,151.844C19.062,154.269 19.045,156.694 19.028,159.193C20.671,170.702 27.366,178.148 36,185.5C37.32,186.645 38.64,187.789 40,188.969C47.036,194.3 52.33,196.499 61.195,196.479C63.908,196.49 63.908,196.49 66.677,196.502C69.586,196.489 69.586,196.489 72.555,196.477C76.676,196.507 80.797,196.54 84.918,196.574C91.405,196.607 97.891,196.625 104.378,196.611C110.647,196.606 116.912,196.662 123.18,196.727C126.083,196.696 126.083,196.696 129.045,196.665C140.891,196.837 146.454,198.034 154,208C155.031,209.176 156.063,210.351 157.125,211.563C158.074,212.697 159.023,213.831 160,215C170.637,227.319 182.42,238.577 194,250C192.827,250.518 191.654,251.036 190.445,251.57C185.688,254.17 182.622,256.977 178.875,260.875C177.717,262.069 176.56,263.262 175.367,264.492C174.256,265.65 173.145,266.807 172,268C165.443,274.587 165.692,274.107 158.886,267.663C156,264 156,264 153.901,258.656C145.787,238.113 132.713,238.928 113.078,239.414C110.046,239.41 107.014,239.397 103.982,239.374C96.029,239.34 88.083,239.437 80.132,239.562C72.007,239.667 63.883,239.646 55.758,239.637C39.836,239.636 23.92,239.774 8,240L8,252C-9.4,254.026 -26.51,254.212 -44,254L-44,242C-53.044,241.799 -53.779,242.634 -55.273,251.859C-55.356,255.155 -55.388,258.453 -55.375,261.75C-55.408,265.037 -55.457,268.323 -55.523,271.609C-55.523,273.073 -55.522,274.537 -55.521,276.046C-56.535,284.413 -60.447,286.766 -68,288.25C-70.382,288.73 -70.382,288.73 -72.813,289.219C-79.872,290.282 -86.93,290.68 -94.063,290.922C-99.633,292.447 -98.977,294.665 -100,300C-89.679,298.377 -79.36,296.741 -69.043,295.093C-65.536,294.534 -62.029,293.98 -58.521,293.429C-53.466,292.634 -48.413,291.826 -43.359,291.016C-41.803,290.774 -40.246,290.532 -38.642,290.283C-30.063,288.892 -22.246,286.823 -14,284C-7.25,283.75 -7.25,283.75 -2,284L-2,286C3.28,286.66 8.56,287.32 14,288C12.035,287.996 12.035,287.996 10.031,287.992C2.981,291.504 5.19,299.145 5.5,306.125C5.536,307.642 5.572,309.159 5.609,310.723C5.704,314.483 5.847,318.242 6,322C3.301,321.993 3.301,321.993 0.547,321.987C-16.376,321.947 -33.299,321.916 -50.222,321.896C-58.923,321.886 -67.625,321.872 -76.326,321.849C-84.716,321.827 -93.106,321.815 -101.496,321.81C-104.704,321.807 -107.912,321.799 -111.12,321.789C-115.598,321.774 -120.076,321.772 -124.554,321.773C-127.108,321.769 -129.662,321.764 -132.293,321.759C-137.798,321.347 -137.798,321.347 -140,324C-145.311,324.271 -150.576,324.421 -155.891,324.492C-159.193,324.558 -162.495,324.625 -165.797,324.691C-171.01,324.786 -176.224,324.875 -181.438,324.954C-186.464,325.034 -191.49,325.137 -196.516,325.242C-198.056,325.259 -199.596,325.276 -201.183,325.293C-210.746,325.509 -218.801,327.123 -228,330C-234.617,330.391 -234.617,330.391 -240.875,330.25C-242.976,330.214 -245.077,330.178 -247.242,330.141C-252,330 -252,330 -252,324C-250.743,323.91 -249.485,323.82 -248.19,323.728C-224.955,322.021 -202.515,320.232 -180,314C-168.818,311.01 -158.345,309.705 -146.75,309.125C-134.996,308.582 -134.996,308.582 -124,304.875C-116.924,301.484 -111.75,301.526 -104,302C-102.35,289.879 -102.35,289.879 -118,290L-118,288L-104,288L-104,256C-107.3,256.66 -110.6,257.32 -114,258C-117.529,258.28 -121.064,258.488 -124.602,258.633C-127.531,258.758 -127.531,258.758 -130.52,258.887C-132.534,258.965 -134.549,259.044 -136.625,259.125C-138.678,259.211 -140.732,259.298 -142.848,259.387C-147.898,259.598 -152.949,259.802 -158,260L-158,268C-163.343,269.665 -168.014,270.693 -173.5,271.5C-174.959,271.75 -176.418,272 -177.922,272.258C-198.581,275.676 -198.581,275.676 -202,262C-208.973,262.45 -209.871,262.624 -210.555,269.938C-212.569,278.387 -214.968,277.825 -223.25,278.75C-226.495,279.121 -226.495,279.121 -229.805,279.5C-231.849,279.665 -233.894,279.83 -236,280C-237.529,280.165 -239.058,280.33 -240.633,280.5C-249.351,281.082 -249.351,281.082 -251.875,276.875C-252.037,270.575 -252.121,264.301 -252,258L-258,258C-257.918,260.063 -257.835,262.125 -257.75,264.25C-258.384,283.905 -263.831,285.739 -282,288C-283.686,288.356 -285.372,288.712 -287.109,289.078C-291.761,289.955 -295.905,290.205 -300.625,290.125C-303.059,290.084 -305.493,290.043 -308,290L-308,274L-316,274C-315.629,275.351 -315.258,276.702 -314.875,278.094C-311.818,296.984 -324.44,298.105 -340.023,300.953C-346.062,301.854 -351.883,302.265 -358,302L-358,318C-372.732,319.339 -372.732,319.339 -374,308C-399.264,307.345 -399.264,307.345 -412,320C-418.088,320.165 -422.144,319.952 -428,318C-431.685,319.525 -435.371,321.059 -438.953,322.813C-444,324 -444,324 -462,322L-462,262L-472,262C-471.478,264.893 -471.478,264.893 -470.945,267.844C-468.753,288.309 -473.395,294.099 -493.461,297.203C-505.652,298.525 -517.753,298.679 -530,298C-532.692,309.756 -531.04,312.036 -522,320C-521.34,321.98 -520.68,323.96 -520,326C-521.857,325.998 -523.714,325.995 -525.628,325.993C-532.51,326.013 -539.388,326.086 -546.27,326.195C-549.249,326.232 -552.229,326.247 -555.209,326.24C-559.491,326.235 -563.766,326.305 -568.047,326.391C-570.623,326.412 -573.2,326.433 -575.854,326.454C-584.404,328.605 -583.796,331.947 -586,340C-584.861,339.996 -583.722,339.992 -582.549,339.987C-514.165,339.733 -445.781,339.482 -377.397,339.236C-369.079,339.206 -360.761,339.176 -352.443,339.146C-350.788,339.14 -349.133,339.134 -347.427,339.127C-324.306,339.044 -301.184,338.959 -278.063,338.873C-266.752,338.83 -255.442,338.789 -244.131,338.747C-237.714,338.723 -231.297,338.699 -224.881,338.675C-190.298,338.546 -155.715,338.426 -121.132,338.329C-118.075,338.32 -115.017,338.312 -111.959,338.303C-109.703,338.297 -109.703,338.297 -107.402,338.29C-104.385,338.282 -101.368,338.273 -98.351,338.265C-90.939,338.243 -83.527,338.223 -76.115,338.202C-42.577,338.109 -9.04,337.959 24.497,337.687C38.671,337.573 52.844,337.488 67.018,337.414C77.631,337.357 88.242,337.258 98.854,337.124C105.091,337.056 111.328,337.027 117.566,337.012C120.378,336.996 123.19,336.964 126.001,336.912C129.736,336.846 133.471,336.845 137.206,336.849C139.263,336.83 141.319,336.81 143.438,336.791C150.114,338.561 149.574,341.546 150,348C96.958,348.357 43.917,348.688 -9.125,349C-11.141,349.012 -13.157,349.024 -15.235,349.036C-156.824,349.87 -298.409,350.181 -440,350.125C-442.221,350.124 -444.443,350.123 -446.732,350.122C-503.154,350.101 -559.577,350.061 -616,350C-612.677,341.36 -608.441,333.633 -603.625,325.75C-602.826,324.433 -602.028,323.115 -601.205,321.758C-583.509,292.664 -583.509,292.664 -574.75,280.75C-570.075,274.359 -566.324,267.607 -562.617,260.617C-559.376,254.899 -555.646,249.469 -552,244C-563.88,243.34 -575.76,242.68 -588,242L-588,240L-484,240L-484,214L-460,214L-460,196L-536,196L-536,184C-359.78,183.34 -183.56,182.68 -2,182C-1.34,121.94 -0.68,61.88 0,0Z" style="fill:rgb(232,247,233);fill-rule:nonzero;"/>
    </g>
    <g transform="matrix(1,0,0,1,606,48)">
        <path d="M0,0L138,0L138,42L174,42L174,78L202,78L202,56L244,56L244,100L260,100L260,80C265.143,80.26 270.286,80.521 275.43,80.781C281.825,79.688 280.645,77.959 282,72C290.258,56.14 301.231,56.199 317.75,57.125C319.89,57.188 322.03,57.251 324.234,57.316C340,57.809 340,57.809 340,82L314,82C314.39,106.503 314.39,106.503 368,100L368,156L284,156L284,210C272.928,210.046 261.857,210.086 250.785,210.11C247.015,210.12 243.246,210.134 239.476,210.151C234.07,210.175 228.664,210.186 223.258,210.195C221.562,210.206 219.866,210.216 218.119,210.227C204.095,210.228 204.095,210.228 203.805,203.43C203.87,198.286 203.935,193.143 204,188L172,188L172,226L136,226L136,178L-100,178C-100,100 -100,100 -70,98C-69.34,90.08 -68.68,82.16 -68,74L-38,74L-38,40L0,40L0,0Z" style="fill:rgb(251,250,2);fill-rule:nonzero;"/>
    </g>
    <g transform="matrix(1,0,0,1,764,352)">
        <path d="M0,0L84,0L84,48L16,48C16.431,93.187 16.431,93.187 158,72L158,120L92,120L92,126L116,126L116,148C119.214,147.965 119.214,147.965 122.492,147.93C125.286,147.911 128.081,147.893 130.875,147.875C132.289,147.858 133.703,147.841 135.16,147.824C147.926,147.763 147.926,147.763 148.195,155.883C148.172,158.273 148.149,160.663 148.125,163.125C148.107,165.52 148.089,167.915 148.07,170.383C148.047,172.236 148.024,174.09 148,176L160,176L160,214L120,214L120,196L102,196L102,180L86,180L86,196C79.418,196.289 72.837,196.468 66.25,196.625C64.376,196.709 62.501,196.793 60.57,196.879C45.741,197.146 42.329,194.73 41.75,179.375C41.833,177.601 41.915,175.827 42,174L28,174L28,136L-4,136L-4,144L-22,144L-22,126L-44,126L-44,68L-22,68L-22,16L0,16L0,0Z" style="fill:rgb(1,241,31);fill-rule:nonzero;"/>
    </g>
    <g transform="matrix(1,0,0,1,742,542)">
        <path d="M0,0C34.535,0 53.399,14.642 54.75,49.375C54.85,72.701 44.386,85.087 27.024,99.49C16.81,107.966 19.256,118.885 19.259,131.277C19.25,135.457 19.178,139.633 19.102,143.813C19.09,146.49 19.082,149.167 19.078,151.844C19.053,155.482 19.053,155.482 19.028,159.193C20.671,170.702 27.366,178.148 36,185.5C37.98,187.217 37.98,187.217 40,188.969C47.036,194.3 52.33,196.499 61.195,196.479C63.908,196.49 63.908,196.49 66.677,196.502C68.616,196.493 70.556,196.485 72.555,196.477C76.676,196.507 80.797,196.54 84.918,196.574C91.405,196.607 97.891,196.625 104.378,196.611C110.647,196.606 116.912,196.662 123.18,196.727C125.115,196.706 127.051,196.686 129.045,196.665C140.891,196.837 146.454,198.034 154,208C155.031,209.176 156.063,210.351 157.125,211.563C158.074,212.697 159.023,213.831 160,215C170.637,227.319 182.42,238.577 194,250C192.827,250.518 191.654,251.036 190.445,251.57C185.688,254.17 182.622,256.977 178.875,260.875C177.717,262.069 176.56,263.262 175.367,264.492C174.256,265.65 173.145,266.807 172,268C165.443,274.587 165.692,274.107 158.886,267.663C156,264 156,264 153.901,258.656C145.787,238.113 132.713,238.928 113.078,239.414C110.046,239.41 107.014,239.397 103.982,239.374C96.029,239.34 88.083,239.437 80.132,239.562C72.007,239.667 63.883,239.646 55.758,239.637C39.836,239.636 23.92,239.774 8,240L8,252C-9.4,254.026 -26.51,254.212 -44,254L-44,242L-72,242L-72,216L-98,216L-98,196L0,196L0,0Z" style="fill:rgb(8,3,69);fill-rule:nonzero;"/>
    </g>
    <g transform="matrix(1,0,0,1,230,270)">
        <path d="M0,0L458,0C456,12 456,12 450,14L450,18C448.68,18.66 447.36,19.32 446,20C445.065,24.712 445.065,24.712 444.75,30.125C444.6,31.963 444.451,33.801 444.297,35.695C444.15,37.826 444.15,37.826 444,40L442,40L442,22L24,22C24.66,54.34 25.32,86.68 26,120C26.546,151.388 26.994,182.768 27.201,214.159C27.284,226.6 27.409,239.039 27.619,251.479C27.825,263.82 27.935,276.16 27.975,288.503C28.007,293.136 28.073,297.77 28.176,302.402C29.168,349.233 29.168,349.233 6,356L0,356L0,0Z" style="fill:rgb(147,199,166);fill-rule:nonzero;"/>
    </g>
    <g transform="matrix(1,0,0,1,808,104)">
        <path d="M0,0L42,0L42,44L58,44L58,24C63.143,24.26 68.286,24.521 73.43,24.781C79.825,23.688 78.645,21.959 80,16C88.258,0.14 99.231,0.199 115.75,1.125C117.89,1.188 120.03,1.251 122.234,1.316C138,1.809 138,1.809 138,26L112,26C112.39,50.503 112.39,50.503 166,44L166,100L82,100L82,154C70.928,154.046 59.857,154.086 48.785,154.11C45.015,154.12 41.246,154.134 37.476,154.151C32.07,154.175 26.664,154.186 21.258,154.195C18.714,154.211 18.714,154.211 16.119,154.227C2.117,154.228 2.117,154.228 1.684,145.989C1.642,143.266 1.612,140.543 1.589,137.82C1.57,136.337 1.55,134.854 1.529,133.326C1.466,128.403 1.417,123.479 1.367,118.555C1.326,115.15 1.284,111.745 1.241,108.34C1.131,99.36 1.032,90.381 0.936,81.401C0.835,72.245 0.724,63.089 0.613,53.934C0.398,35.956 0.196,17.978 0,0Z" style="fill:rgb(0,242,30);fill-rule:nonzero;"/>
    </g>
    <g transform="matrix(1,0,0,1,740,694)">
        <path d="M0,0L2,0L2,44L-96,44L-96,64C-171.054,64.165 -246.096,63.733 -321.146,63.109C-336.127,62.985 -351.109,62.866 -366.09,62.746C-396.727,62.503 -427.363,62.253 -458,62L-458,44L-534,44L-534,32C-357.78,31.34 -181.56,30.68 0,30L0,0Z" style="fill:rgb(144,199,170);fill-rule:nonzero;"/>
    </g>
    <g transform="matrix(1,0,0,1,638,798)">
        <path d="M0,0C0.107,5.292 0.187,10.582 0.25,15.875C0.284,17.384 0.317,18.894 0.352,20.449C0.453,31.773 0.453,31.773 -4,34C-2.68,34.66 -1.36,35.32 0,36C1.719,45.361 1.719,45.361 -4.602,47.711C-7.583,48.04 -7.583,48.04 -10.625,48.375C-18.187,49.275 -21.535,49.69 -28,54C-32.28,54.408 -36.578,54.628 -40.875,54.75C-54.057,55.333 -66.703,57.366 -79.625,60C-82.258,60.535 -82.258,60.535 -84.945,61.081C-93.721,62.797 -93.721,62.797 -102,66C-117.22,68.501 -132.628,68.217 -148,68L-148,72L-340,72C-340,61.579 -329.055,61.482 -320,60C-312.75,61.625 -312.75,61.625 -308,64L-308,56C-295.535,50.492 -281.436,50.768 -268,50L-268,62L-254,62C-254.536,59.484 -255.073,56.968 -255.625,54.375C-255.749,40.382 -238.841,41.434 -228,40C-226.255,39.742 -224.509,39.484 -222.711,39.219C-219.151,38.731 -215.576,38.351 -212,38L-212,18L-204,18L-204,34C-156.347,35.516 -156.347,35.516 -158,18C-157.34,17.34 -156.68,16.68 -156,16C-155.265,11.344 -154.595,6.676 -154,2C-148,2 -148,2 -146,24C-144.095,23.711 -142.19,23.423 -140.227,23.125C-137.718,22.754 -135.21,22.383 -132.625,22C-128.901,21.443 -128.901,21.443 -125.102,20.875C-119.282,20.158 -113.846,19.821 -108,20C-108.083,18.103 -108.165,16.205 -108.25,14.25C-108,8 -108,8 -104,4C-93.821,5.542 -93.749,8.211 -94,18C-92.118,17.567 -90.236,17.134 -88.297,16.688C-85.806,16.131 -83.316,15.574 -80.75,15C-78.29,14.443 -75.831,13.886 -73.297,13.313C-66.657,12.118 -60.722,11.752 -54,12L-54,4C-44.647,2.258 -35.361,1.415 -25.875,0.875C-24.487,0.789 -23.098,0.702 -21.668,0.613C-14.436,0.181 -7.245,-0.099 0,0Z" style="fill:rgb(250,190,243);fill-rule:nonzero;"/>
    </g>
    <g transform="matrix(1,0,0,1,520,794)">
        <path d="M0,0L0,-6L116,-6C116,8.711 110.392,6.112 97.594,6.633C95.634,6.717 93.675,6.8 91.656,6.887C89.625,6.965 87.593,7.044 85.5,7.125C82.406,7.255 82.406,7.255 79.25,7.387C74.167,7.599 69.084,7.803 64,8L64,16C58.657,17.665 53.986,18.693 48.5,19.5C47.041,19.75 45.582,20 44.078,20.258C23.419,23.676 23.419,23.676 20,10C13.027,10.45 12.129,10.624 11.445,17.938C9.431,26.387 7.032,25.825 -1.25,26.75C-3.413,26.997 -5.576,27.245 -7.805,27.5C-10.871,27.747 -10.871,27.747 -14,28C-16.293,28.247 -16.293,28.247 -18.633,28.5C-27.351,29.082 -27.351,29.082 -29.875,24.875C-30.037,18.575 -30.121,12.301 -30,6L-36,6C-35.917,8.063 -35.835,10.125 -35.75,12.25C-36.384,31.905 -41.831,33.739 -60,36C-62.529,36.534 -62.529,36.534 -65.109,37.078C-69.761,37.955 -73.905,38.205 -78.625,38.125C-82.276,38.063 -82.276,38.063 -86,38L-86,22L-94,22C-93.629,23.351 -93.257,24.702 -92.875,26.094C-89.818,44.984 -102.44,46.105 -118.023,48.953C-124.062,49.854 -129.883,50.265 -136,50L-136,66C-150.732,67.339 -150.732,67.339 -152,56C-177.264,55.345 -177.264,55.345 -190,68C-196.088,68.165 -200.144,67.952 -206,66C-209.685,67.525 -213.371,69.059 -216.953,70.813C-224.749,72.647 -232.152,71.174 -240,70C-240.993,58.692 -241.607,47.416 -241.352,36.063C-241.319,34.249 -241.286,32.435 -241.252,30.566C-238.221,19.515 -227.4,21.061 -218,22C-213.042,22.031 -208.083,22.031 -203.125,22C-199.664,22.124 -199.664,22.124 -196.133,22.25C-186.957,21.876 -182.978,20.934 -180,12C-170.594,8.662 -159.86,9.828 -150,10C-150.124,8.391 -150.248,6.783 -150.375,5.125C-149.744,-3.498 -143.152,-2.249 -135.977,-2.195C-133.705,-2.186 -133.705,-2.186 -131.387,-2.176C-129.03,-2.151 -129.03,-2.151 -126.625,-2.125C-125.03,-2.116 -123.436,-2.107 -121.793,-2.098C-117.862,-2.074 -113.931,-2.038 -110,-2L-110,4L-102,4L-102,-4L-76,-4C-79.3,-1.36 -82.6,1.28 -86,4C-87.772,10.277 -87.772,10.277 -88,16C-86.581,14.623 -86.581,14.623 -85.133,13.219C-61.361,-8.838 -30.029,-13.346 0,0Z" style="fill:rgb(5,249,246);fill-rule:nonzero;"/>
    </g>
    <g transform="matrix(1,0,0,1,228,260)">
        <path d="M0,0L4,0L4,8L462,8C462.041,44.96 462.083,81.92 462.125,120C462.143,131.406 462.161,142.811 462.18,154.563C462.363,359.001 462.363,359.001 439.331,360.254C438.073,360.256 436.816,360.257 435.52,360.259C434.05,360.265 432.581,360.271 431.066,360.278C429.521,360.274 427.975,360.27 426.383,360.266C424.718,360.268 423.053,360.27 421.337,360.273C415.933,360.276 410.529,360.263 405.125,360.25C401.383,360.25 397.641,360.251 393.899,360.251C375.873,360.227 357.873,360.023 339.859,359.336C338.313,359.278 336.768,359.221 335.175,359.162C327.908,358.883 320.646,358.564 313.383,358.185C310.841,358.075 308.299,357.965 305.68,357.852C303.46,357.736 301.24,357.621 298.953,357.502C293.214,357.318 293.214,357.318 292,364C286.657,364.712 281.766,364.98 276.398,365.023C273.821,365.077 273.821,365.077 271.192,365.133C265.253,365.245 259.315,365.311 253.375,365.375C249.119,365.442 244.863,365.509 240.606,365.578C163.084,366.681 85.527,366.165 8,366C19.589,353.767 26.186,351.398 42.907,351.519C44.629,351.516 46.351,351.512 48.125,351.509C53.904,351.502 59.683,351.524 65.463,351.546C69.602,351.547 73.741,351.546 77.88,351.544C89.127,351.543 100.374,351.567 111.621,351.594C123.371,351.619 135.121,351.622 146.871,351.627C169.127,351.639 191.382,351.672 213.637,351.712C238.971,351.757 264.306,351.779 289.641,351.799C341.761,351.841 393.88,351.911 446,352C445.994,350.342 445.989,348.685 445.983,346.977C445.851,306.702 445.752,266.428 445.689,226.153C445.658,206.677 445.616,187.2 445.547,167.724C445.488,150.755 445.449,133.786 445.435,116.817C445.428,107.826 445.409,98.835 445.366,89.845C445.325,81.392 445.312,72.94 445.321,64.487C445.32,61.376 445.308,58.265 445.285,55.153C445.255,50.923 445.262,46.695 445.278,42.465C445.273,40.092 445.267,37.719 445.262,35.275C446,30 446,30 452,28L452,24C453.32,23.34 454.64,22.68 456,22C457.32,18.04 458.64,14.08 460,10L2,10L2,184L0,184L0,0Z" style="fill:rgb(212,228,195);fill-rule:nonzero;"/>
    </g>
    <g transform="matrix(1,0,0,1,254,292)">
        <path d="M0,0L418,0L418,18C416.297,17.996 414.594,17.991 412.84,17.987C371.357,17.884 329.875,17.87 288.392,17.953C268.33,17.992 248.27,18 228.209,17.938C210.719,17.885 193.229,17.887 175.739,17.957C166.482,17.991 157.227,17.998 147.97,17.938C139.246,17.882 130.524,17.901 121.8,17.977C118.609,17.992 115.418,17.98 112.227,17.938C91.401,17.683 78.849,20.689 64,36C61.339,38.39 58.666,40.767 55.977,43.125C53.517,45.407 51.066,47.699 48.625,50C47.331,51.215 46.036,52.43 44.703,53.681C35.896,62.022 27.716,70.636 20,80C17.142,83.348 14.267,86.681 11.375,90C10.063,91.526 8.75,93.053 7.398,94.625C4,98 4,98 0,98L0,0Z" style="fill:rgb(5,45,206);fill-rule:nonzero;"/>
    </g>
    <g transform="matrix(1,0,0,1,154,782)">
        <path d="M0,0L104,0L104,4C105.98,4.66 107.96,5.32 110,6C102.875,6.058 95.75,6.094 88.625,6.125C85.603,6.15 85.603,6.15 82.52,6.176C80.567,6.182 78.614,6.189 76.602,6.195C74.811,6.206 73.02,6.216 71.174,6.227C66,6 66,6 60.587,4.738C51.723,3.312 50.728,11.026 48,18C46.32,21.04 44.565,24.039 42.75,27C41.708,28.707 40.667,30.413 39.594,32.172C38.408,34.095 37.222,36.018 36,38C34.552,40.359 33.104,42.719 31.656,45.078C27.781,51.392 23.89,57.695 20,64C31.88,63.34 43.76,62.68 56,62C56.99,66.95 56.99,66.95 58,72C61.253,75.412 64.58,78.756 68,82L68,86C66.143,85.998 64.286,85.995 62.372,85.993C55.49,86.013 48.612,86.086 41.73,86.195C38.751,86.232 35.771,86.247 32.791,86.24C28.509,86.235 24.234,86.305 19.953,86.391C17.377,86.412 14.8,86.433 12.146,86.454C3.596,88.605 4.204,91.947 2,100C3.139,99.996 4.278,99.992 5.451,99.987C73.835,99.733 142.219,99.482 210.603,99.236C218.921,99.206 227.239,99.176 235.557,99.146C237.212,99.14 238.867,99.134 240.573,99.127C263.694,99.044 286.816,98.959 309.937,98.873C321.248,98.83 332.558,98.789 343.869,98.747C350.286,98.723 356.703,98.699 363.119,98.675C397.702,98.546 432.285,98.426 466.868,98.329C469.925,98.32 472.983,98.312 476.041,98.303C477.545,98.299 479.048,98.295 480.598,98.29C483.615,98.282 486.632,98.273 489.649,98.265C497.061,98.243 504.473,98.223 511.885,98.202C545.423,98.109 578.96,97.959 612.497,97.687C626.671,97.573 640.844,97.488 655.018,97.414C665.631,97.357 676.242,97.258 686.854,97.124C693.091,97.056 699.328,97.027 705.566,97.012C708.378,96.996 711.19,96.964 714.001,96.912C717.736,96.846 721.471,96.845 725.206,96.849C728.291,96.82 728.291,96.82 731.438,96.791C738.114,98.561 737.574,101.546 738,108C684.958,108.357 631.917,108.688 578.875,109C576.859,109.012 574.843,109.024 572.765,109.036C431.176,109.87 289.591,110.181 148,110.125C145.779,110.124 143.557,110.123 141.268,110.122C84.846,110.101 28.423,110.061 -28,110C-24.677,101.36 -20.441,93.633 -15.625,85.75C-14.826,84.433 -14.028,83.115 -13.205,81.758C4.491,52.664 4.491,52.664 13.25,40.75C17.925,34.359 21.676,27.607 25.383,20.617C28.624,14.899 32.354,9.469 36,4C24.12,3.34 12.24,2.68 0,2L0,0Z" style="fill:rgb(130,191,184);fill-rule:nonzero;"/>
    </g>
    <g transform="matrix(1,0,0,1,778,236)">
        <path d="M0,0C32,0 32,0 34,20C59.74,21.32 85.48,22.64 112,24C112,26 112,26 106.227,26.227C102.464,26.424 102.464,26.424 98.625,26.625C96.142,26.741 93.66,26.857 91.102,26.977C80.545,28.498 73.297,30.9 72.25,42.25C70.421,52.155 65.633,51.825 56,52C52.518,55.482 53.013,60.258 52.5,65C52.263,67.001 52.026,69.001 51.781,71.063C51.265,76.793 51.265,76.793 58,78C56.02,79.32 54.04,80.64 52,82C50.712,92.3 52.747,95.439 63.25,97.25C65.478,97.498 67.705,97.745 70,98L70,116L-14,116L-14,132L-36,132L-36,38L0,38L0,0Z" style="fill:rgb(8,4,67);fill-rule:nonzero;"/>
    </g>
    <g transform="matrix(1,0,0,1,270,804)">
        <path d="M0,0L10,0L10,60C15.94,60.66 21.88,61.32 28,62L28,66C29.419,65.859 30.839,65.717 32.301,65.571C57.465,63.406 82.638,63.701 107.875,63.75C111.495,63.751 111.495,63.751 115.188,63.751C140.157,63.757 165.112,63.866 190.07,64.594C191.885,64.647 193.699,64.699 195.569,64.754C203.92,65.007 212.268,65.298 220.617,65.64C222.864,65.719 222.864,65.719 225.156,65.801C229.103,65.941 233.05,66.105 236.996,66.271C244.572,65.978 250.783,64.235 258,62C264.875,61.75 264.875,61.75 270,62C267.075,70.775 263.134,69.546 254.375,71.125C245.05,72.549 245.05,72.549 236.454,76.063C230.158,78.801 224.756,78.491 217.902,78.481C215.773,78.486 215.773,78.486 213.6,78.491C208.843,78.498 204.087,78.476 199.33,78.454C195.92,78.453 192.51,78.454 189.1,78.456C179.84,78.457 170.581,78.433 161.321,78.406C151.645,78.381 141.969,78.378 132.293,78.373C113.969,78.361 95.645,78.328 77.321,78.288C56.461,78.243 35.6,78.221 14.739,78.201C-28.174,78.159 -71.087,78.089 -114,78C-111.834,63.459 -110.944,63.745 -96.242,63.805C-94.182,63.809 -94.182,63.809 -92.081,63.813C-87.679,63.824 -83.277,63.85 -78.875,63.875C-75.897,63.885 -72.919,63.894 -69.941,63.902C-62.628,63.924 -55.314,63.959 -48,64C-49.034,62.938 -50.068,61.876 -51.133,60.781C-52.45,59.368 -53.768,57.956 -55.125,56.5C-56.448,55.108 -57.77,53.716 -59.133,52.281C-63.473,45.801 -61.267,42.534 -58,36C-52.313,35.313 -52.313,35.313 -45,35C-26.367,34.887 -26.367,34.887 -10,28L0,28L0,0Z" style="fill:rgb(252,246,235);fill-rule:nonzero;"/>
    </g>
    <g transform="matrix(1,0,0,1,876.125,261.5)">
        <path d="M0,0C3.747,-0.077 3.747,-0.077 7.57,-0.156C16.417,0.765 17.875,3.832 17.875,12.5L31.875,12.5L31.875,26.5L47.875,26.5L47.875,74.5L31.875,74.5C31.999,76.356 32.123,78.213 32.25,80.125C31.142,98.958 8.017,95.023 -6.125,94.5C-28.125,92.887 -28.125,92.887 -28.125,72.5C-30.311,72.624 -32.498,72.748 -34.75,72.875C-44.307,72.389 -47.471,70.972 -48.875,61.375C-48.125,56.5 -48.125,56.5 -42.125,52.5C-43.445,51.84 -44.765,51.18 -46.125,50.5C-46.656,45.633 -46.656,45.633 -46.625,39.625C-46.635,37.648 -46.646,35.67 -46.656,33.633C-45.468,22.148 -37.643,24.147 -28.125,24.5C-28.372,21.839 -28.372,21.839 -28.625,19.125C-27.308,1.681 -14.805,0.184 0,0Z" style="fill:rgb(248,137,235);fill-rule:nonzero;"/>
    </g>
    <g transform="matrix(1,0,0,1,454,38)">
        <path d="M0,0C5.81,3.813 6,4.928 6,12C8.145,11.835 10.29,11.67 12.5,11.5C23.2,12.213 27.37,15.497 28.875,26.25C30.389,33.989 32.77,33.884 40,36C44.853,40.853 44.544,42.231 44.5,48.875C44.515,51.222 44.515,51.222 44.531,53.617C43.171,64.836 37.707,64.633 28,64C28.124,66.186 28.247,68.373 28.375,70.625C27.807,81.803 25.327,83.082 14.75,86C7.36,87.186 7.36,87.186 6,94C0.53,94.337 -4.325,94.276 -9.75,93.875C-11.217,93.82 -12.684,93.764 -14.195,93.707C-23.557,93.102 -27.098,91.944 -32,84C-34.351,83.711 -36.703,83.423 -39.125,83.125C-50.035,81.34 -50.142,75.702 -49.75,65.5C-50.082,58.191 -51.306,58.984 -58,58C-65.481,46.779 -62.203,41.609 -54,32C-52.639,29.03 -52.639,29.03 -51.25,26C-45.846,16.024 -35.511,5.89 -23.75,6.125C-14.825,5.931 -12.676,-1.909 0,0Z" style="fill:rgb(1,207,239);fill-rule:nonzero;"/>
    </g>
    <g transform="matrix(1,0,0,1,220,786)">
        <path d="M0,0C3.873,0.268 7.752,0.447 11.633,0.563C14.055,0.636 16.478,0.71 18.974,0.786C21.691,0.858 24.408,0.929 27.125,1C29.212,1.059 29.212,1.059 31.342,1.119C83.547,2.583 135.781,3.204 188,4C188,6 188,6 181.141,6.297C178.177,6.447 175.213,6.598 172.25,6.75C170.757,6.812 169.265,6.874 167.727,6.938C155.415,7.572 155.415,7.572 150,18C143.516,18.72 137.254,18.873 130.742,18.879C120.563,19.057 120.563,19.057 118,28C111.388,32.986 104.899,32.349 96.875,32.125C84.434,31.93 72.355,32.588 60,34L60,18L50,18C50.348,19.928 50.696,21.857 51.055,23.844C53.247,44.309 48.605,50.099 28.539,53.203C16.348,54.525 4.247,54.679 -8,54L-8,58C-16.707,59.68 -24.889,60.215 -33.75,60.125C-36.055,60.107 -38.36,60.089 -40.734,60.07C-42.472,60.047 -44.21,60.024 -46,60C-43.474,53.153 -40.563,47.467 -36.375,41.5C-28.869,30.497 -22.492,19.076 -16.625,7.125C-11.827,-2.243 -9.708,-2.278 0,0Z" style="fill:rgb(227,232,14);fill-rule:nonzero;"/>
    </g>
    <g transform="matrix(1,0,0,1,97.875,662.75)">
        <path d="M0,0C1.484,-0.039 2.967,-0.077 4.496,-0.117C14.867,-0.023 17.376,1.361 20.125,11.25C26.209,11.75 26.209,11.75 32.125,11.25C34.125,15.25 34.125,15.25 33.625,21.375C34.323,29.58 36.535,28.527 44.125,29.25C50.06,35.185 47.361,39.284 46.125,47.25C46.775,49.921 47.435,52.589 48.125,55.25C43.093,60.282 40.976,59.611 34.125,59.25C34.29,61.106 34.455,62.963 34.625,64.875C33.823,75.095 29.462,77.058 19.625,77.625C16.903,77.439 16.903,77.439 14.125,77.25L14.125,83.25L-17.875,83.25L-17.875,75.25L-35.875,75.25L-35.875,57.25C-37.814,56.961 -39.753,56.673 -41.75,56.375C-53.059,54.298 -50.587,47.165 -49.875,37.25C-47.482,27.678 -42.965,28.46 -33.875,29.25L-33.875,13.25C-31.276,13.126 -28.677,13.003 -26,12.875C-18.803,12.809 -18.803,12.809 -17.359,6.227C-14.851,-2.184 -7.545,-0.196 0,0Z" style="fill:rgb(250,156,242);fill-rule:nonzero;"/>
    </g>
    <g transform="matrix(1,0,0,1,878,0)">
        <path d="M0,0L0,8C3.341,7.938 3.341,7.938 6.75,7.875C17.932,8.068 17.932,8.068 18.25,17.125C18.168,19.394 18.085,21.663 18,24L28,24C28.108,27.874 28.186,31.75 28.25,35.625C28.296,37.783 28.343,39.941 28.391,42.164C27.823,50.645 26.553,53.847 17.75,54.375C15.852,54.251 13.955,54.128 12,54C12.371,56.228 12.743,58.455 13.125,60.75C11.531,71.021 7.644,70.019 -1.867,71.031C-6.803,71.569 -6.803,71.569 -8,78C-13.883,78.586 -13.883,78.586 -21.125,78.375C-23.52,78.321 -25.915,78.267 -28.383,78.211C-34,78 -34,78 -34,68C-36.269,67.711 -38.538,67.423 -40.875,67.125C-50.212,65.651 -50.212,65.651 -49.375,59.125C-50.34,51.212 -54.839,51.862 -62,50C-67.034,44.966 -66.529,42.879 -66,36C-65.34,35.34 -64.68,34.68 -64,34C-63.265,29.344 -62.595,24.676 -62,20L-48,20L-48,2C-31.967,-0.25 -16.157,-0.192 0,0Z" style="fill:rgb(250,15,184);fill-rule:nonzero;"/>
    </g>
    <g transform="matrix(1,0,0,1,560,660)">
        <path d="M0,0L154,0L154,34C48.557,34.413 48.557,34.413 0,32L0,0Z" style="fill:rgb(14,18,109);fill-rule:nonzero;"/>
    </g>
    <g transform="matrix(1,0,0,1,520,794)">
        <path d="M0,0L0,-6L116,-6C116,8.711 110.392,6.112 97.594,6.633C94.655,6.758 94.655,6.758 91.656,6.887C89.625,6.965 87.593,7.044 85.5,7.125C82.406,7.255 82.406,7.255 79.25,7.387C74.167,7.599 69.084,7.803 64,8L64,16C58.657,17.665 53.986,18.693 48.5,19.5C47.041,19.75 45.582,20 44.078,20.258C23.419,23.676 23.419,23.676 20,10C13.027,10.45 12.129,10.624 11.445,17.938C9.431,26.387 7.032,25.825 -1.25,26.75C-3.413,26.997 -5.576,27.245 -7.805,27.5C-10.871,27.747 -10.871,27.747 -14,28C-15.529,28.165 -17.058,28.33 -18.633,28.5C-27.351,29.082 -27.351,29.082 -29.875,24.875C-30.037,18.575 -30.121,12.301 -30,6L-36,6C-35.917,8.063 -35.835,10.125 -35.75,12.25C-36.384,31.905 -41.831,33.739 -60,36C-61.707,36.356 -63.413,36.712 -65.172,37.078C-71.488,38.284 -77.587,38.126 -84,38C-84.121,36.747 -84.242,35.494 -84.367,34.203C-84.619,31.751 -84.619,31.751 -84.875,29.25C-85.037,27.626 -85.2,26.002 -85.367,24.328C-85.782,19.915 -85.782,19.915 -88,16C-66.305,-9.755 -29.762,-13.227 0,0Z" style="fill:rgb(6,250,246);fill-rule:nonzero;"/>
    </g>
    <g transform="matrix(1,0,0,1,902,738)">
        <path d="M0,0C3,3.047 3,3.047 6,6.75C12.467,14.396 19.302,21.546 26.375,28.625C27.397,29.656 28.419,30.687 29.473,31.749C40.049,42.895 40.049,42.895 54,48C54.66,46.68 55.32,45.36 56,44C59.35,50.7 59.568,54.681 58,62C52.488,63.648 47.09,64.175 41.383,64.867C33.208,66.588 31.631,70.738 28,78C24.632,81.897 21.235,85.755 17.758,89.555C13.642,99.963 25.288,113.991 30.75,122.875C31.543,124.18 32.335,125.484 33.152,126.829C38.694,135.932 44.302,144.993 50,154C30.949,156.847 30.949,156.847 27.5,146.5C27.304,144.842 27.108,143.185 26.906,141.477C23.481,120.776 7.441,101.12 -3.688,83.648C-6.812,78.719 -9.858,73.746 -12.875,68.75C-14.171,66.608 -14.171,66.608 -15.492,64.422C-18,60 -18,60 -20.109,53.5C-26.258,44.808 -33.389,46.68 -43.375,47.25C-45.16,47.304 -46.946,47.358 -48.785,47.414C-60.375,46.199 -60.375,46.199 -62,56C-66.461,57.516 -66.461,57.516 -72.375,58.25C-80.244,59.282 -86.71,60.858 -94,64C-109.049,68.738 -124.35,69.226 -140,70L-140,46L-152,46C-152,42.175 -127.913,43.404 -122.672,43.297C-114.923,43.167 -107.174,43.06 -99.425,42.964C-91.285,42.86 -83.149,42.718 -75.011,42.491C-67.152,42.273 -59.297,42.154 -51.435,42.102C-48.441,42.066 -45.448,41.994 -42.455,41.885C-21.613,41.162 -11.988,43.619 -4,64C0.652,73.463 0.652,73.463 10,76C10.536,74.928 11.073,73.855 11.625,72.75C15.991,64.017 22.728,57.091 32,54C30.87,52.901 29.74,51.802 28.575,50.67C23.451,45.671 18.35,40.648 13.25,35.625C10.582,33.032 10.582,33.032 7.859,30.387C5.307,27.863 5.307,27.863 2.703,25.289C1.132,23.749 -0.439,22.21 -2.058,20.624C-6,16 -6,16 -8.169,10.544C-11.281,2.82 -17.71,3.732 -25.126,3.589C-27.889,3.53 -27.889,3.53 -30.707,3.468C-32.688,3.435 -34.669,3.402 -36.711,3.367C-39.761,3.305 -39.761,3.305 -42.873,3.241C-49.374,3.11 -55.874,2.993 -62.375,2.875C-66.78,2.789 -71.185,2.701 -75.59,2.613C-86.393,2.399 -97.196,2.195 -108,2L-108,0C-106.777,-0.021 -105.553,-0.041 -104.293,-0.062C-91.608,-0.278 -78.924,-0.507 -66.24,-0.745C-61.5,-0.831 -56.761,-0.915 -52.021,-0.995C-45.225,-1.11 -38.429,-1.237 -31.633,-1.367C-29.5,-1.401 -27.366,-1.434 -25.168,-1.468C-23.206,-1.508 -21.244,-1.548 -19.223,-1.589C-17.487,-1.62 -15.75,-1.652 -13.961,-1.684C-4.121,-2.47 -4.121,-2.47 0,0Z" style="fill:rgb(128,209,160);fill-rule:nonzero;"/>
    </g>
    <g transform="matrix(1,0,0,1,742.884,879.815)">
        <path d="M0,0C20.334,-0.2 40.667,-0.367 61.002,-0.469C70.26,-0.515 79.518,-0.578 88.776,-0.684C97.128,-0.78 105.479,-0.831 113.832,-0.843C116.859,-0.856 119.887,-0.885 122.914,-0.933C127,-0.996 131.087,-0.991 135.173,-0.982C138.586,-1.007 138.586,-1.007 142.067,-1.031C149.257,0.7 148.167,3.361 149.116,10.185C108.324,10.251 67.533,10.288 26.741,10.31C25.148,10.311 23.556,10.311 21.915,10.312C-115.603,10.385 -253.118,9.839 -390.634,9.185C-394.404,9.167 -394.404,9.167 -398.25,9.149C-463.128,8.84 -528.006,8.519 -592.884,8.185L-592.884,4.185C-591.275,4.176 -589.665,4.168 -588.007,4.159C-537.627,3.894 -487.247,3.621 -436.866,3.343C-430.775,3.31 -424.683,3.276 -418.592,3.243C-322.898,2.717 -227.207,2.145 -131.516,1.19C-99.978,0.877 -68.44,0.61 -36.902,0.342C-24.601,0.237 -12.301,0.121 0,0Z" style="fill:rgb(4,127,184);fill-rule:nonzero;"/>
    </g>
    <g transform="matrix(1,0,0,1,234,98)">
        <path d="M0,0C1.691,1.898 3.382,3.795 5.125,5.75C11.728,11.506 15.065,10.62 21.492,4.883C23.742,2.383 25.992,-0.117 28.242,-2.617C36.004,-9.604 39.287,-12.322 47.859,-4.984C49.864,-2.607 51.826,-0.193 53.75,2.25C54.771,3.441 55.792,4.632 56.844,5.859C63.81,14.369 66.468,19.347 58.414,27.734C56.834,29.06 55.253,30.385 53.625,31.75C46.996,37.441 40.748,43.205 34.727,49.539C33.488,50.832 32.25,52.126 30.974,53.458C28.508,56.052 26.065,58.668 23.647,61.308C21.942,63.085 21.942,63.085 20.203,64.898C19.199,65.978 18.195,67.057 17.161,68.169C5.175,75.11 -17.774,41.921 -24.914,33.492C-27.783,30.246 -30.786,27.397 -34,24.5C-38.579,19.349 -39.491,17.956 -36,12C-33.351,10.633 -30.683,9.301 -28,8C-26.63,5.352 -25.303,2.682 -24,0C-12.943,-12.163 -11.126,-11.643 0,0Z" style="fill:rgb(249,191,248);fill-rule:nonzero;"/>
    </g>
    <g transform="matrix(1,0,0,1,52,194)">
        <path d="M0,0L30,0L30,16L60,16L60,0L90,0L90,38L76,38L76,52L60,52L60,68L30,68L30,52L14,52L14,38L0,38L0,0Z" style="fill:rgb(238,182,239);fill-rule:nonzero;"/>
    </g>
    <g transform="matrix(1,0,0,1,836.914,818.766)">
        <path d="M0,0C24.626,-3.604 33.345,23.882 41.086,43.234L-74.914,43.234C-72.914,21.234 -72.914,21.234 -68.914,11.234C-70.234,10.574 -71.554,9.914 -72.914,9.234C-53.692,4.727 -35.126,2.126 -15.391,1.594C-10.007,1.447 -5.354,0.956 0,0Z" style="fill:rgb(7,253,254);fill-rule:nonzero;"/>
    </g>
    <g transform="matrix(1,0,0,1,962,638)">
        <path d="M0,0C29.049,3.631 29.049,3.631 29.32,20.328C29.636,24.845 29.636,24.845 36.125,26.75C45.461,31.915 43.388,40.199 42,50C40,52 40,52 33,52.25C22.889,54.778 25.162,58.376 24,68C16.095,73.57 5.943,78.701 -1.25,70.125C-2.611,68.083 -2.611,68.083 -4,66C-5.98,65.34 -7.96,64.68 -10,64C-10.66,65.98 -11.32,67.96 -12,70C-24,68 -24,68 -24,50L-34,50L-34,24L-28,24C-28.165,22.474 -28.33,20.948 -28.5,19.375C-27.351,7.025 -16.42,7.137 -6,6C0.632,4.843 0.632,4.843 0,0Z" style="fill:rgb(246,9,219);fill-rule:nonzero;"/>
    </g>
    <g transform="matrix(1,0,0,1,266.07,611.492)">
        <path d="M0,0C3.71,-0.017 3.71,-0.017 7.495,-0.034C10.23,-0.026 12.965,-0.018 15.7,-0.01C18.585,-0.015 21.469,-0.022 24.354,-0.031C32.185,-0.049 40.015,-0.042 47.845,-0.029C56.039,-0.019 64.232,-0.029 72.426,-0.035C86.185,-0.042 99.945,-0.033 113.705,-0.014C129.614,0.008 145.524,0.001 161.434,-0.021C175.092,-0.039 188.749,-0.042 202.407,-0.031C210.565,-0.025 218.723,-0.024 226.882,-0.037C234.551,-0.049 242.22,-0.041 249.89,-0.018C252.705,-0.012 255.521,-0.014 258.336,-0.023C262.178,-0.034 266.019,-0.018 269.861,0C272.011,0.002 274.161,0.003 276.377,0.005C289.93,1.233 289.93,1.233 289.93,6.508C287.499,6.438 285.068,6.369 282.563,6.297C279.394,6.241 276.225,6.186 273.055,6.133C271.451,6.083 269.846,6.032 268.192,5.981C258.369,4.875 258.369,4.875 253.93,12.508C248.587,13.22 243.696,13.488 238.329,13.531C236.611,13.567 234.892,13.603 233.122,13.64C227.183,13.753 221.245,13.819 215.305,13.883C211.049,13.95 206.793,14.017 202.537,14.086C125.015,15.189 47.458,14.673 -30.07,14.508C-20.101,3.986 -14.574,0.01 0,0Z" style="fill:rgb(227,231,204);fill-rule:nonzero;"/>
    </g>
    <g transform="matrix(1,0,0,1,615.243,861.773)">
        <path d="M0,0C3.604,0 3.604,0 7.28,0C9.894,0.011 12.509,0.021 15.203,0.032C17.89,0.035 20.578,0.038 23.265,0.04C30.351,0.048 37.437,0.068 44.522,0.09C51.748,0.11 58.973,0.119 66.199,0.129C80.385,0.151 94.571,0.185 108.757,0.227L108.757,20.227L-113.243,20.227C-107.898,9.539 -87.931,9.53 -77.243,10.227L-77.243,6.227C-61.772,3.536 -46.173,3.489 -30.508,3.016C-28.322,2.941 -26.136,2.867 -23.883,2.79C-21.888,2.729 -19.893,2.668 -17.837,2.606C-11.339,2.07 -7.312,-0.015 0,0Z" style="fill:rgb(241,117,242);fill-rule:nonzero;"/>
    </g>
    <g transform="matrix(1,0,0,1,236,676)">
        <path d="M0,0L134,0C134,25.908 134,25.908 126.748,26.241C124.408,26.236 122.067,26.232 119.656,26.227C117.724,26.227 117.724,26.227 115.753,26.228C111.479,26.227 107.204,26.211 102.93,26.195C99.973,26.192 97.016,26.189 94.06,26.187C86.264,26.179 78.468,26.159 70.672,26.137C62.723,26.117 54.774,26.108 46.824,26.098C31.216,26.076 15.608,26.041 0,26L0,0Z" style="fill:rgb(75,68,82);fill-rule:nonzero;"/>
    </g>
    <g transform="matrix(1,0,0,1,140.424,889.754)">
        <path d="M0,0C1.942,-0.003 1.942,-0.003 3.923,-0.007C8.302,-0.012 12.682,-0.003 17.062,0.006C20.216,0.005 23.371,0.003 26.526,0C35.228,-0.004 43.929,0.004 52.631,0.014C62.003,0.023 71.374,0.02 80.746,0.018C96.993,0.017 113.241,0.023 129.489,0.035C152.98,0.051 176.472,0.056 199.964,0.059C238.074,0.063 276.184,0.076 314.294,0.095C351.323,0.114 388.351,0.128 425.38,0.136C427.661,0.137 429.942,0.137 432.292,0.138C443.735,0.14 455.178,0.143 466.62,0.145C561.606,0.166 656.591,0.201 751.576,0.246L751.576,2.246C749.061,2.259 749.061,2.259 746.495,2.272C704.796,2.483 663.097,2.7 621.398,2.925C601.23,3.033 581.061,3.14 560.892,3.241C537.474,3.358 514.056,3.482 490.639,3.613C488.69,3.624 486.741,3.635 484.733,3.646C427.968,3.965 371.211,4.526 314.451,5.309C247.272,6.234 180.109,6.503 112.925,6.39C98.726,6.367 84.527,6.357 70.328,6.347C41.411,6.327 12.493,6.292 -16.424,6.246C-16.424,-2.414 -6.528,-0.002 0,0Z" style="fill:rgb(193,219,183);fill-rule:nonzero;"/>
    </g>
    <g transform="matrix(1,0,0,1,506,148)">
        <rect x="0" y="0" width="28" height="78" style="fill:rgb(0,251,22);fill-rule:nonzero;"/>
    </g>
    <g transform="matrix(1,0,0,1,428,836)">
        <path d="M0,0C0,24 0,24 -6,24.734C-8.667,25.072 -11.333,25.411 -14,25.75C-16.599,26.075 -19.198,26.4 -21.875,26.734C-27.285,27.481 -31.983,28.561 -37.297,30.063C-49.06,33.134 -61.163,32.94 -73.25,33.25C-76.796,33.366 -76.796,33.366 -80.414,33.484C-96.948,33.989 -113.459,34.085 -130,34C-130,23.579 -119.055,23.482 -110,22C-102.75,23.625 -102.75,23.625 -98,26L-98,18C-85.535,12.492 -71.436,12.768 -58,12L-58,24L-44,24C-44.536,21.484 -45.073,18.968 -45.625,16.375C-45.847,2.424 -28.749,3.571 -18,2C-16.608,1.626 -15.216,1.252 -13.781,0.867C-10,0 -10,0 0,0Z" style="fill:rgb(248,209,10);fill-rule:nonzero;"/>
    </g>
    <g transform="matrix(1,0,0,1,902,738)">
        <path d="M0,0C3,3.047 3,3.047 6,6.75C12.467,14.396 19.302,21.546 26.375,28.625C27.397,29.656 28.419,30.687 29.473,31.749C40.049,42.895 40.049,42.895 54,48C54.66,46.68 55.32,45.36 56,44C59.35,50.7 59.568,54.681 58,62C52.486,63.648 47.092,64.174 41.383,64.859C33.261,66.58 31.656,70.823 28,78C25.894,80.633 23.725,83.217 21.5,85.75C20.458,86.941 19.417,88.132 18.344,89.359C16,92 16,92 13.125,89.625C6.008,81.369 7.137,75.34 14.25,67.75C15.451,66.425 16.653,65.1 17.891,63.734C22.294,59.733 26.873,56.99 32,54C30.87,52.901 29.74,51.802 28.575,50.67C23.451,45.671 18.35,40.648 13.25,35.625C11.471,33.896 9.692,32.168 7.859,30.387C6.158,28.704 4.456,27.022 2.703,25.289C1.132,23.749 -0.439,22.21 -2.058,20.624C-6,16 -6,16 -8.169,10.544C-11.281,2.82 -17.71,3.732 -25.126,3.589C-27.889,3.53 -27.889,3.53 -30.707,3.468C-32.688,3.435 -34.669,3.402 -36.711,3.367C-39.761,3.305 -39.761,3.305 -42.873,3.241C-49.374,3.11 -55.874,2.993 -62.375,2.875C-66.78,2.789 -71.185,2.701 -75.59,2.613C-86.393,2.399 -97.196,2.195 -108,2L-108,0C-106.777,-0.021 -105.553,-0.041 -104.293,-0.062C-91.608,-0.278 -78.924,-0.507 -66.24,-0.745C-61.5,-0.831 -56.761,-0.915 -52.021,-0.995C-45.225,-1.11 -38.429,-1.237 -31.633,-1.367C-29.5,-1.401 -27.366,-1.434 -25.168,-1.468C-23.206,-1.508 -21.244,-1.548 -19.223,-1.589C-17.487,-1.62 -15.75,-1.652 -13.961,-1.684C-4.121,-2.47 -4.121,-2.47 0,0Z" style="fill:rgb(131,142,158);fill-rule:nonzero;"/>
    </g>
    <g transform="matrix(1,0,0,1,270.875,817.5)">
        <path d="M0,0C1.378,18.943 -10.373,20.425 -26.572,22.166C-37.369,23.004 -48.055,23.1 -58.875,22.5L-58.875,26.5C-67.582,28.18 -75.764,28.715 -84.625,28.625C-86.93,28.607 -89.235,28.589 -91.609,28.57C-93.347,28.547 -95.085,28.524 -96.875,28.5C-90.578,12.107 -82.495,7.579 -64.875,8.5C-63.555,9.82 -62.235,11.14 -60.875,12.5C-56.454,12.985 -56.454,12.985 -51.625,12.75C-49.99,12.714 -48.356,12.678 -46.672,12.641C-42.209,13.109 -42.209,13.109 -42.875,8.5L-38.875,8.5C-39.865,-1.4 -39.865,-1.4 -40.875,-11.5C-35.667,-11.836 -30.458,-12.169 -25.25,-12.5C-23.774,-12.595 -22.298,-12.691 -20.777,-12.789C-2.519,-13.946 -2.519,-13.946 0,0Z" style="fill:rgb(187,223,1);fill-rule:nonzero;"/>
    </g>
    <g transform="matrix(1,0,0,1,300,676)">
        <rect x="0" y="0" width="70" height="24" style="fill:rgb(73,70,81);fill-rule:nonzero;"/>
    </g>
    <g transform="matrix(1,0,0,1,728,880)">
        <path d="M0,0C21.087,-0.231 42.175,-0.409 63.263,-0.518C73.054,-0.57 82.845,-0.641 92.635,-0.754C102.076,-0.863 111.516,-0.923 120.957,-0.949C124.567,-0.967 128.177,-1.004 131.787,-1.057C136.826,-1.129 141.862,-1.14 146.902,-1.135C148.409,-1.171 149.917,-1.207 151.47,-1.244C161.772,-1.141 161.772,-1.141 164,10L0,10L0,0Z" style="fill:rgb(96,142,175);fill-rule:nonzero;"/>
    </g>
    <g transform="matrix(1,0,0,1,446,192)">
        <rect x="0" y="0" width="48" height="34" style="fill:rgb(1,251,26);fill-rule:nonzero;"/>
    </g>
    <g transform="matrix(1,0,0,1,406.973,189.143)">
        <path d="M0,0C12.178,0.274 15.191,2.592 21.027,12.857C22.554,13.723 24.08,14.589 25.652,15.482C29.027,18.857 29.027,18.857 29.027,36.857L-18.973,36.857C-18.973,0.441 -18.973,0.441 0,0Z" style="fill:rgb(1,243,36);fill-rule:nonzero;"/>
    </g>
    <g transform="matrix(1,0,0,1,638,798)">
        <path d="M0,0L0,32L-14,32L-14,36C-23.9,36.66 -33.8,37.32 -44,38C-44.054,32.375 -44.094,26.75 -44.125,21.125C-44.142,19.52 -44.159,17.915 -44.176,16.262C-44.243,0.354 -41.108,1.659 -26.5,0.875C-25.067,0.789 -23.633,0.702 -22.156,0.613C-14.747,0.184 -7.428,0 0,0Z" style="fill:rgb(224,218,14);fill-rule:nonzero;"/>
    </g>
    <g transform="matrix(1,0,0,1,270,832)">
        <path d="M0,0C2,34 2,34 -6.695,34.703C-44.13,36.821 -44.13,36.821 -54,14C-55.32,13.34 -56.64,12.68 -58,12C-58,8 -58,8 -52.508,7.703C-34.722,6.612 -16.66,0 0,0Z" style="fill:rgb(1,246,249);fill-rule:nonzero;"/>
    </g>
    <g transform="matrix(1,0,0,1,778.555,783.648)">
        <path d="M0,0C5.269,-0.074 10.537,-0.139 15.806,-0.198C19.479,-0.248 23.152,-0.316 26.824,-0.403C32.091,-0.524 37.356,-0.581 42.625,-0.625C45.103,-0.702 45.103,-0.702 47.631,-0.781C58.984,-0.787 58.984,-0.787 61.497,5.413C61.445,10.352 61.445,10.352 56.984,11.086C55.033,11.421 53.081,11.756 51.07,12.102C48.182,12.589 48.182,12.589 45.234,13.086C39.605,14.317 34.738,16.106 29.445,18.352C14.396,23.089 -0.904,23.577 -16.555,24.352C-16.555,0.314 -16.555,0.314 0,0Z" style="fill:rgb(146,220,16);fill-rule:nonzero;"/>
    </g>
    <g transform="matrix(1,0,0,1,746,832)">
        <path d="M0,0L0,30L-48,30C-48,2.38 -48,2.38 -31.875,1.5C-30.371,1.322 -28.866,1.144 -27.316,0.961C-18.14,-0.04 -9.284,0 0,0Z" style="fill:rgb(5,254,246);fill-rule:nonzero;"/>
    </g>
    <g transform="matrix(1,0,0,1,480,816)">
        <path d="M0,0C4.189,0 2.621,13.692 2.75,17.75C2.901,20.275 2.901,20.275 3.055,22.852C3.331,34.371 2.46,38.163 -10,40C-12.145,40.413 -14.29,40.825 -16.5,41.25C-25.734,42.173 -34.721,42.127 -44,42C-44,16 -44,16 0,10L0,0Z" style="fill:rgb(232,214,17);fill-rule:nonzero;"/>
    </g>
    <g transform="matrix(1,0,0,1,714,660)">
        <path d="M0,0L0,34C-106.778,34.418 -106.778,34.418 -154,32C-154,20.444 -116.044,24.408 -105.012,24.102C-91.932,23.912 -79.012,24.687 -66,26L-66,16L-64,16L-64,26L-34,26L-34,14L-30,14L-30,26C19.179,26 -20.159,0 0,0Z" style="fill:rgb(16,29,224);fill-rule:nonzero;"/>
    </g>
    <g transform="matrix(1,0,0,1,542,806)">
        <path d="M0,0L2,0L2,10C3.882,9.567 5.764,9.134 7.703,8.688C10.194,8.131 12.684,7.574 15.25,7C17.71,6.443 20.169,5.886 22.703,5.313C29.343,4.118 35.278,3.752 42,4C45.444,33.316 45.444,33.316 32.875,35.75C27.383,36.094 27.383,36.094 22,36C20.533,36.052 19.066,36.103 17.555,36.156C14.37,36.235 11.182,36.138 8,36L8,40L0,40L0,0Z" style="fill:rgb(220,218,9);fill-rule:nonzero;"/>
    </g>
    <g transform="matrix(1,0,0,1,180,278)">
        <path d="M0,0L2,0L2,440L6,440L6,444L16,444C16.66,449.28 17.32,454.56 18,460L0,460L0,0Z" style="fill:rgb(174,173,190);fill-rule:nonzero;"/>
    </g>
    <g transform="matrix(1,0,0,1,530,806)">
        <path d="M0,0L2,0C2,40 2,40 -38,46C-38,16 -38,16 -24.625,14C-20.901,13.443 -20.901,13.443 -17.102,12.875C-11.282,12.158 -5.846,11.821 0,12L0,0Z" style="fill:rgb(212,220,10);fill-rule:nonzero;"/>
    </g>
    <g transform="matrix(1,0,0,1,686,796)">
        <path d="M0,0C0,26 0,26 -30,28L-30,32L-42,32C-42,1.998 -42,1.998 -22.125,1C-20.234,0.905 -18.343,0.809 -16.395,0.711C-14.596,0.621 -12.798,0.53 -10.945,0.438C-9.28,0.354 -7.615,0.27 -5.899,0.184C-3.934,0.091 -1.967,0 0,0Z" style="fill:rgb(214,229,12);fill-rule:nonzero;"/>
    </g>
    <g transform="matrix(1,0,0,1,759.5,815.875)">
        <path d="M0,0C1.598,0.018 3.197,0.036 4.844,0.055C6.05,0.078 7.257,0.101 8.5,0.125C6.003,7.615 5.465,7.017 -1.875,8.25C-4.563,8.718 -4.563,8.718 -7.305,9.195C-16.491,10.574 -25.691,11.832 -34.906,13C-41.475,13.946 -41.475,13.946 -47.453,16.125C-54.249,18.373 -60.646,19.28 -67.75,20.125C-79.35,21.564 -90.829,23.297 -102.328,25.391C-107.462,26.12 -112.323,26.256 -117.5,26.125C-116.877,15.638 -114.246,14.85 -104.125,14C-91.042,12.609 -78.294,10.488 -65.375,8C-51.024,5.297 -37.024,3.162 -22.422,2.477C-17.598,2.277 -17.598,2.277 -13.422,1.094C-8.829,-0.041 -4.724,-0.069 0,0Z" style="fill:rgb(246,194,246);fill-rule:nonzero;"/>
    </g>
    <g transform="matrix(1,0,0,1,750,794)">
        <path d="M0,0C0,22.755 -0.553,18.125 -18.125,21C-19.82,21.286 -21.515,21.572 -23.262,21.867C-32.985,23.444 -42.151,24.321 -52,24C-52,-7.582 -27.917,-0.522 0,0Z" style="fill:rgb(223,218,4);fill-rule:nonzero;"/>
    </g>
    <g transform="matrix(1,0,0,1,205.766,843.703)">
        <path d="M0,0C6.637,0.465 5.157,4.236 6.234,10.297C9.487,13.709 12.815,17.052 16.234,20.297L16.234,24.297L-41.766,24.297C-34.045,1.136 -34.045,1.136 -19.016,0.672C-15.651,0.529 -15.651,0.529 -12.219,0.383C-8.144,0.329 -4.07,0.21 0,0Z" style="fill:rgb(15,240,249);fill-rule:nonzero;"/>
    </g>
    <g transform="matrix(1,0,0,1,78,502)">
        <path d="M0,0L0,22C2.64,20.68 5.28,19.36 8,18C12.281,17.609 12.281,17.609 16.5,17.75C20.212,17.874 20.212,17.874 24,18C21.216,23.568 17.688,23.958 12,26C14.901,34.47 17.562,34.946 26.25,34.5C29.468,34.335 32.685,34.17 36,34C35.34,43.24 34.68,52.48 34,62C18.5,50.5 18.5,50.5 14,46C12.391,45.464 10.783,44.928 9.125,44.375C2.688,41.392 1.471,38.037 -2,32C-3.369,31.531 -4.738,31.062 -6.148,30.578C-12.528,26.308 -10.763,20.994 -10.5,13.75C-10.428,11.187 -10.356,8.625 -10.281,5.984C-10,0 -10,0 0,0Z" style="fill:rgb(1,238,27);fill-rule:nonzero;"/>
    </g>
    <g transform="matrix(1,0,0,1,982.938,668.484)">
        <path d="M0,0C0.146,12.299 -0.372,22.998 -15.398,23.734C-31.239,22.597 -36.192,17.762 -35.648,1.836C-32.733,-15.88 -3.606,-17.25 0,0Z" style="fill:rgb(254,237,252);fill-rule:nonzero;"/>
    </g>
    <g transform="matrix(1,0,0,1,762,854)">
        <path d="M0,0C14.534,-0.185 29.067,-0.327 43.602,-0.414C50.35,-0.456 57.098,-0.513 63.847,-0.604C71.601,-0.7 79.354,-0.746 87.109,-0.781C89.539,-0.823 91.968,-0.864 94.471,-0.906C96.713,-0.907 98.955,-0.908 101.265,-0.908C103.245,-0.926 105.226,-0.944 107.267,-0.962C112,0 112,0 116,8L0,8L0,0Z" style="fill:rgb(9,126,248);fill-rule:nonzero;"/>
    </g>
    <g transform="matrix(1,0,0,1,370.653,808.807)">
        <path d="M0,0C-0.966,7.681 -3.834,7.005 -11.098,8.287C-14.387,8.902 -14.387,8.902 -17.743,9.529C-20.064,9.913 -22.386,10.298 -24.778,10.693C-27.045,11.108 -29.313,11.524 -31.649,11.951C-40.792,13.604 -49.934,15.135 -59.145,16.35C-64.462,16.608 -64.462,16.608 -66.653,19.193C-70.692,19.338 -74.736,19.361 -78.778,19.318C-80.987,19.3 -83.197,19.282 -85.473,19.264C-88.037,19.229 -88.037,19.229 -90.653,19.193C-90.653,5.949 -80.152,8.208 -68.653,7.193C-61.347,7.101 -54.087,7.182 -46.786,7.443C-37.61,7.069 -33.631,6.127 -30.653,-2.807C-23.045,-5.506 -1.235,-9.09 0,0Z" style="fill:rgb(36,252,19);fill-rule:nonzero;"/>
    </g>
    <g transform="matrix(1,0,0,1,698,784)">
        <path d="M0,0L0,34C2.8,33.544 5.6,33.087 8.484,32.617C12.239,32.035 15.995,31.455 19.75,30.875C21.586,30.572 23.421,30.269 25.313,29.957C37.965,28.041 49.346,28.103 62,30C62,36.646 30.827,37.068 25.281,37.43C12.132,38.46 -0.927,40.272 -14,42C-13.724,35.374 -13.426,28.75 -13.125,22.125C-13.046,20.234 -12.968,18.343 -12.887,16.395C-12.803,14.596 -12.719,12.798 -12.633,10.945C-12.559,9.28 -12.486,7.615 -12.411,5.899C-11.553,-2.241 -8.978,0 0,0Z" style="fill:rgb(243,246,236);fill-rule:nonzero;"/>
    </g>
    <g transform="matrix(1,0,0,1,650,670)">
        <path d="M0,0L52,0L52,16L34,16L34,4L30,4L30,16L0,16L0,0Z" style="fill:rgb(88,80,104);fill-rule:nonzero;"/>
    </g>
    <g transform="matrix(1,0,0,1,696,174)">
        <rect x="0" y="0" width="22" height="34" style="fill:rgb(25,19,29);fill-rule:nonzero;"/>
    </g>
    <g transform="matrix(1,0,0,1,626,174)">
        <rect x="0" y="0" width="22" height="34" style="fill:rgb(29,21,28);fill-rule:nonzero;"/>
    </g>
    <g transform="matrix(1,0,0,1,684,842)">
        <path d="M0,0L0,20L-42,20C-42,4.219 -42,4.219 -28.875,2.125C-26.439,1.694 -24.002,1.264 -21.492,0.82C-14.255,0.028 -7.273,-0.159 0,0Z" style="fill:rgb(16,253,254);fill-rule:nonzero;"/>
    </g>
    <g transform="matrix(1,0,0,1,740,826)">
        <path d="M0,0L0,2C5.28,2.66 10.56,3.32 16,4C14.69,3.997 13.381,3.995 12.031,3.992C4.981,7.504 7.19,15.145 7.5,22.125C7.536,23.642 7.572,25.159 7.609,26.723C7.704,30.483 7.847,34.242 8,38L-16,38L-16,36L6,36L6,6C1.808,6.65 1.808,6.65 -2.469,7.313C-6.146,7.875 -9.823,8.438 -13.5,9C-15.341,9.286 -17.182,9.572 -19.078,9.867C-21.746,10.273 -21.746,10.273 -24.469,10.688C-26.103,10.939 -27.737,11.19 -29.42,11.449C-34,12 -34,12 -42,12L-42,36L-56,36L-56,16L-66,16C-66,12.226 -60.976,12.751 -57.875,12.125C-47.981,10.032 -38.357,7.295 -28.664,4.414C-18.904,1.609 -10.271,-0.833 0,0Z" style="fill:rgb(202,240,245);fill-rule:nonzero;"/>
    </g>
    <g transform="matrix(1,0,0,1,598,852)">
        <path d="M0,0C0,4.941 -8.46,2.537 -12.305,2.781C-17.148,3.801 -17.148,3.801 -18,12L4,12C4,14 4,14 -2.571,14.12C-10.663,14.273 -18.755,14.45 -26.847,14.635C-30.341,14.711 -33.834,14.781 -37.328,14.844C-42.367,14.936 -47.406,15.052 -52.445,15.172C-54.765,15.207 -54.765,15.207 -57.131,15.242C-66.701,15.499 -74.795,17.125 -84,20C-90.617,20.391 -90.617,20.391 -96.875,20.25C-98.976,20.214 -101.077,20.178 -103.242,20.141C-108,20 -108,20 -108,14C-106.743,13.91 -105.485,13.82 -104.19,13.728C-80.95,12.021 -58.523,10.212 -36,4C-23.638,0.802 -12.804,-0.406 0,0Z" style="fill:rgb(228,237,237);fill-rule:nonzero;"/>
    </g>
    <g transform="matrix(1,0,0,1,510.392,881.773)">
        <path d="M0,0C1.681,0 3.363,0 5.095,0C6.901,0.011 8.708,0.021 10.569,0.032C12.425,0.035 14.281,0.037 16.193,0.04C22.123,0.052 28.053,0.077 33.983,0.102C38.002,0.112 42.022,0.121 46.042,0.129C55.897,0.151 65.752,0.186 75.608,0.227C69.91,8.774 64.087,7.03 54.63,6.908C51.996,6.91 51.996,6.91 49.308,6.911C43.486,6.907 37.665,6.86 31.842,6.813C27.812,6.802 23.782,6.793 19.753,6.787C9.132,6.764 -1.488,6.705 -12.108,6.639C-22.94,6.578 -33.771,6.55 -44.603,6.52C-65.866,6.456 -87.129,6.353 -108.392,6.227C-108.392,4.227 -108.392,4.227 -104.864,4.165C-92.763,3.948 -80.661,3.719 -68.561,3.482C-64.042,3.396 -59.524,3.312 -55.006,3.232C-48.517,3.117 -42.029,2.99 -35.541,2.86C-32.503,2.81 -32.503,2.81 -29.404,2.759C-27.522,2.719 -25.641,2.679 -23.702,2.638C-22.046,2.607 -20.389,2.576 -18.682,2.543C-12.159,2.062 -6.667,-0.02 0,0Z" style="fill:rgb(28,162,171);fill-rule:nonzero;"/>
    </g>
    <g transform="matrix(1,0,0,1,418,790)">
        <path d="M0,0L26,0C8.372,14.103 -14.002,16.938 -36,20C-37.98,14.06 -39.96,8.12 -42,2L-8,2L-8,8L0,8L0,0Z" style="fill:rgb(19,250,26);fill-rule:nonzero;"/>
    </g>
    <g transform="matrix(1,0,0,1,779.328,781.297)">
        <path d="M0,0C7.749,-0.13 15.498,-0.237 23.247,-0.333C31.387,-0.437 39.523,-0.579 47.661,-0.806C55.52,-1.023 63.375,-1.143 71.237,-1.194C74.231,-1.231 77.224,-1.303 80.216,-1.411C101.086,-2.136 110.641,0.337 118.672,20.703C122.878,29.377 122.878,29.377 130.672,32.703C132.813,36.641 132.813,36.641 134.922,41.703C135.628,43.374 136.335,45.044 137.063,46.766C138.672,50.703 138.672,50.703 134.672,52.703C133.641,50.599 132.609,48.496 131.547,46.328C127.593,39.312 123.155,36.255 116.297,32.003C111.392,27.538 109.728,22.565 107.046,16.525C97.837,0.394 86.428,1.403 69.305,1.922C66.455,1.922 63.605,1.911 60.755,1.89C53.292,1.864 45.837,1.981 38.375,2.128C30.746,2.253 23.118,2.242 15.488,2.242C0.546,2.263 -14.388,2.435 -29.328,2.703C-29.328,-1.121 -5.241,0.107 0,0Z" style="fill:rgb(109,156,123);fill-rule:nonzero;"/>
    </g>
    <g transform="matrix(1,0,0,1,320,816)">
        <path d="M0,0C-4.415,0.677 -8.832,1.341 -13.25,2C-15.71,2.371 -18.169,2.743 -20.703,3.125C-27.233,3.908 -33.434,4.162 -40,4C-40,-14.01 -40,-14.01 -26.625,-15C-22.901,-15.278 -22.901,-15.278 -19.102,-15.563C-2.076,-16.611 -2.076,-16.611 0,0Z" style="fill:rgb(166,231,1);fill-rule:nonzero;"/>
    </g>
    <g transform="matrix(1,0,0,1,270,822)">
        <path d="M0,0C2.54,14.448 -10.086,13.991 -21.461,16.57C-33.63,18.867 -45.653,18.685 -58,18L-58,22C-69.88,22.99 -69.88,22.99 -82,24C-69.878,14.908 -55.269,10.762 -40,12L-40,8C-32.74,7.34 -25.48,6.68 -18,6L-18,2C-12.02,-0.215 -6.318,-0.175 0,0Z" style="fill:rgb(19,254,13);fill-rule:nonzero;"/>
    </g>
    <g transform="matrix(1,0,0,1,762,794)">
        <path d="M0,0L68,0C68,4.193 57.694,5.026 54,6C52.278,6.503 50.556,7.005 48.781,7.523C32.462,12.044 16.853,13.332 0,14L0,0Z" style="fill:rgb(246,197,17);fill-rule:nonzero;"/>
    </g>
    <g transform="matrix(1,0,0,1,638,848)">
        <path d="M0,0L0,6L-4,6L-4,14C-22.048,15.381 -39.887,16.304 -58,16C-55.863,1.438 -33.558,2.987 -21.25,1.75C-19.639,1.577 -18.027,1.405 -16.367,1.227C-4.744,0 -4.744,0 0,0Z" style="fill:rgb(17,254,249);fill-rule:nonzero;"/>
    </g>
    <g transform="matrix(1,0,0,1,270,804)">
        <path d="M0,0L10,0L10,62C-2.129,62 0.144,52.93 -0.165,42.345C-0.196,35.937 -0.174,29.532 -0.125,23.125C-0.116,20.899 -0.107,18.673 -0.098,16.379C-0.074,10.919 -0.041,5.46 0,0Z" style="fill:rgb(222,249,245);fill-rule:nonzero;"/>
    </g>
    <g transform="matrix(1,0,0,1,698,784)">
        <path d="M0,0L52,0C52,15.33 39.871,11.765 26.014,12.095C17.342,12.174 8.672,12.105 0,12L0,0Z" style="fill:rgb(17,209,54);fill-rule:nonzero;"/>
    </g>
    <g transform="matrix(1,0,0,1,236,676)">
        <path d="M0,0L2,0L2,24L54,24L54,0L64,0L64,24L132,24L132,26L0,26L0,0Z" style="fill:rgb(119,125,123);fill-rule:nonzero;"/>
    </g>
    <g transform="matrix(1,0,0,1,688,784)">
        <path d="M0,0C-1.81,17.12 -9.542,15.795 -24.25,14.875C-26.14,14.812 -28.03,14.749 -29.977,14.684C-44,14.188 -44,14.188 -44,2C-29.29,0.727 -14.768,-0.25 0,0Z" style="fill:rgb(19,238,194);fill-rule:nonzero;"/>
    </g>
    <g transform="matrix(1,0,0,1,566,672)">
        <path d="M0,0C6.958,-0.058 13.917,-0.094 20.875,-0.125C23.855,-0.15 23.855,-0.15 26.895,-0.176C28.783,-0.182 30.671,-0.189 32.617,-0.195C35.241,-0.211 35.241,-0.211 37.917,-0.227C46.247,0.236 44,2.948 44,12L0,12L0,0Z" style="fill:rgb(135,177,16);fill-rule:nonzero;"/>
    </g>
    <g transform="matrix(1,0,0,1,936,796)">
        <path d="M0,0C0,15.892 -6.947,23.123 -18,34C-24.97,28.242 -28.436,21.873 -23.273,13.664C-21.987,12.331 -20.7,10.998 -19.375,9.625C-18.104,8.277 -16.833,6.928 -15.523,5.539C-7.515,-2.505 -7.515,-2.505 0,0Z" style="fill:rgb(236,240,240);fill-rule:nonzero;"/>
    </g>
    <g transform="matrix(1,0,0,1,490,800)">
        <path d="M0,0C2.038,11.698 2.236,23.018 2.125,34.875C2.116,36.72 2.107,38.564 2.098,40.465C2.074,44.977 2.042,49.488 2,54L-10,54C-9.719,47.624 -9.423,41.25 -9.125,34.875C-9.046,33.084 -8.968,31.294 -8.887,29.449C-7.484,0 -7.484,0 0,0Z" style="fill:rgb(246,250,235);fill-rule:nonzero;"/>
    </g>
    <g transform="matrix(1,0,0,1,208,834)">
        <path d="M0,0C1.031,-0.33 2.063,-0.66 3.125,-1C9.467,-2.301 15.544,-2.124 22,-2C22,2.224 5.181,3.945 0.789,4.902C-0.719,5.241 -2.227,5.58 -3.781,5.93C-5.855,6.382 -5.855,6.382 -7.971,6.843C-12.112,7.886 -12.112,7.886 -16.045,10.114C-21.973,12.941 -27.542,12.248 -34,12C-29.802,-0.593 -3.419,-21.882 0,0Z" style="fill:rgb(146,238,5);fill-rule:nonzero;"/>
    </g>
    <g transform="matrix(1,0,0,1,318,864)">
        <path d="M0,0C3.267,-0.47 6.533,-0.949 9.793,-1.467C17.344,-2.424 24.9,-2.287 32.5,-2.25C34.104,-2.258 35.707,-2.265 37.359,-2.273C44.069,-2.262 49.593,-2.136 56,0C56,8.016 12.128,5.922 2.979,6.095C-4.682,6.161 -12.34,6.121 -20,6C-20,-2.834 -6.44,-6.44 0,0Z" style="fill:rgb(254,158,1);fill-rule:nonzero;"/>
    </g>
    <g transform="matrix(1,0,0,1,426.961,830.711)">
        <path d="M0,0C-1.571,8.648 -8.711,8.381 -16.336,9.914C-18.5,10.419 -18.5,10.419 -20.707,10.934C-28.234,12.618 -35.205,13.702 -42.961,13.289C-42.961,-3.395 -37.684,0.489 -23.086,-1.711C-21.195,-1.997 -19.304,-2.283 -17.355,-2.578C-14.658,-2.984 -14.658,-2.984 -11.906,-3.398C-10.241,-3.65 -8.576,-3.901 -6.86,-4.16C-1.017,-4.986 -1.017,-4.986 0,0Z" style="fill:rgb(28,252,6);fill-rule:nonzero;"/>
    </g>
    <g transform="matrix(1,0,0,1,370,836)">
        <path d="M0,0C0.286,13.443 -0.028,14.081 -13.375,15C-21.687,15.624 -29.806,16.407 -38,18C-38,6 -38,6 -32.891,5.195C-30.699,4.842 -28.508,4.489 -26.25,4.125C-22.978,3.603 -22.978,3.603 -19.641,3.07C-3.038,-0.08 -3.038,-0.08 0,0Z" style="fill:rgb(18,251,8);fill-rule:nonzero;"/>
    </g>
    <g transform="matrix(1,0,0,1,542,804)">
        <path d="M0,0C0.908,4.083 0.908,4.083 0.781,9.383C0.755,11.271 0.73,13.16 0.703,15.105C0.636,17.092 0.569,19.078 0.5,21.125C0.464,23.119 0.428,25.113 0.391,27.168C0.107,42 0.107,42 -10,42C-10.058,35.042 -10.094,28.083 -10.125,21.125C-10.142,19.139 -10.159,17.152 -10.176,15.105C-10.182,13.217 -10.189,11.329 -10.195,9.383C-10.206,7.634 -10.216,5.885 -10.227,4.083C-9.806,-3.489 -6.076,-2.65 0,0Z" style="fill:rgb(249,254,252);fill-rule:nonzero;"/>
    </g>
    <g transform="matrix(1,0,0,1,480,816)">
        <path d="M0,0C1.148,9.492 1.148,9.492 -4.023,11.781C-5.789,12.018 -7.555,12.256 -9.375,12.5C-11.115,12.758 -12.855,13.016 -14.648,13.281C-16.414,13.518 -18.18,13.756 -20,14C-22.568,14.538 -22.568,14.538 -25.188,15.086C-31.498,16.284 -37.594,16.126 -44,16C-44,6 -44,6 -37.211,5.195C-34.266,4.839 -31.32,4.482 -28.375,4.125C-26.899,3.951 -25.423,3.777 -23.902,3.598C-15.791,2.607 -8.075,0 0,0Z" style="fill:rgb(11,251,12);fill-rule:nonzero;"/>
    </g>
    <g transform="matrix(1,0,0,1,318,848)">
        <path d="M0,0C1.185,9.531 -0.427,11.451 -9.375,14.625C-11.115,15.277 -12.855,15.93 -14.648,16.602C-20.014,18.004 -24.483,18.268 -30,18C-32.75,6.5 -32.75,6.5 -26,2C-17.269,0.016 -8.931,-0.179 0,0Z" style="fill:rgb(12,248,29);fill-rule:nonzero;"/>
    </g>
    <g transform="matrix(1,0,0,1,842,818)">
        <path d="M0,0C0,5.447 -24.018,4.654 -29.375,4.875C-41.237,5.437 -52.472,6.603 -64.109,9.047C-77.266,11.176 -90.7,11.408 -104,12C-98.74,1.48 -72.027,2.73 -61.125,1.75C-58.384,1.493 -58.384,1.493 -55.588,1.231C-44.204,0.217 -32.966,-0.359 -21.531,0.055C-1.76,-0.251 -1.76,-0.251 0,0Z" style="fill:rgb(246,250,250);fill-rule:nonzero;"/>
    </g>
    <g transform="matrix(1,0,0,1,616,672)">
        <path d="M0,0C4.95,1.98 4.95,1.98 10,4C10.66,2.68 11.32,1.36 12,0C16.57,-0.391 16.57,-0.391 22.125,-0.25C24.882,-0.196 24.882,-0.196 27.695,-0.141C32,0 32,0 32,14L0,14L0,0Z" style="fill:rgb(119,155,28);fill-rule:nonzero;"/>
    </g>
    <g transform="matrix(1,0,0,1,110,698)">
        <path d="M0,0C1.246,17.442 1.246,17.442 -9.875,18.625C-20.181,17.573 -22.163,15.159 -21.625,4.75C-19,-6.155 -7.907,-7.907 0,0Z" style="fill:rgb(254,63,13);fill-rule:nonzero;"/>
    </g>
    <g transform="matrix(1,0,0,1,866,28)">
        <path d="M0,0C6.143,6.143 4.274,11.51 4,20C-17.436,21.054 -17.436,21.054 -18.5,7.75C-17.545,-3.236 -9.23,-1.114 0,0Z" style="fill:rgb(250,216,8);fill-rule:nonzero;"/>
    </g>
    <g transform="matrix(1,0,0,1,384,832)">
        <path d="M0,0L0,28L-14,28C-14.054,23.708 -14.093,19.417 -14.125,15.125C-14.148,12.735 -14.171,10.345 -14.195,7.883C-13.841,-2.794 -12.154,0 0,0Z" style="fill:rgb(247,253,226);fill-rule:nonzero;"/>
    </g>
    <g transform="matrix(1,0,0,1,942,780)">
        <path d="M0,0C6.93,2.97 6.93,2.97 14,6C14.66,4.68 15.32,3.36 16,2C18.957,7.913 18.121,13.485 18,20C-6,24 -6,24 -8,14C-5.25,10.875 -5.25,10.875 -2,8C-0.571,3.793 -0.571,3.793 0,0Z" style="fill:rgb(163,190,175);fill-rule:nonzero;"/>
    </g>
    <g transform="matrix(1,0,0,1,272,854)">
        <path d="M0,0L0,12C-6.958,12.116 -13.916,12.187 -20.875,12.25C-23.855,12.3 -23.855,12.3 -26.895,12.352C-28.783,12.364 -30.671,12.377 -32.617,12.391C-35.241,12.422 -35.241,12.422 -37.917,12.454C-42,12 -42,12 -44,8C-30.189,1.555 -15.117,-0.657 0,0Z" style="fill:rgb(1,191,244);fill-rule:nonzero;"/>
    </g>
    <g transform="matrix(1,0,0,1,454,76)">
        <path d="M0,0C2.913,8.279 4.427,15.225 -4,20C-13.634,21.927 -16.471,18.824 -20,10C-18.799,-3.209 -12.075,-4.706 0,0Z" style="fill:rgb(232,238,27);fill-rule:nonzero;"/>
    </g>
    <g transform="matrix(1,0,0,1,584,802)">
        <path d="M0,0L10,0C10,36 10,36 -6,38C-4.02,37.34 -2.04,36.68 0,36C0.837,32.325 0.837,32.325 0.586,27.93C0.567,26.312 0.547,24.694 0.527,23.027C0.477,21.327 0.427,19.627 0.375,17.875C0.348,16.167 0.321,14.459 0.293,12.699C0.222,8.466 0.114,4.233 0,0Z" style="fill:rgb(238,248,226);fill-rule:nonzero;"/>
    </g>
    <g transform="matrix(1,0,0,1,154,782)">
        <path d="M0,0L104,0L104,4C105.98,4.66 107.96,5.32 110,6C102.708,6.058 95.417,6.094 88.125,6.125C85.002,6.15 85.002,6.15 81.816,6.176C78.848,6.185 78.848,6.185 75.82,6.195C73.071,6.211 73.071,6.211 70.266,6.227C66,6 66,6 64,4C59.253,3.681 54.558,3.482 49.805,3.367C48.387,3.326 46.969,3.284 45.509,3.241C40.964,3.11 36.42,2.992 31.875,2.875C28.801,2.789 25.727,2.701 22.652,2.613C15.102,2.399 7.551,2.196 0,2L0,0Z" style="fill:rgb(153,163,138);fill-rule:nonzero;"/>
    </g>
    <g transform="matrix(1,0,0,1,332,836)">
        <path d="M0,0C0.054,2.833 0.093,5.667 0.125,8.5C0.148,10.078 0.171,11.656 0.195,13.281C-0.311,25.524 -0.311,25.524 -6.875,27.375C-25.682,22.329 -18.132,0 0,0Z" style="fill:rgb(231,253,228);fill-rule:nonzero;"/>
    </g>
    <g transform="matrix(1,0,0,1,530,808)">
        <path d="M0,0C0,15.308 -14.705,13.476 -28.711,14.266C-31.809,14.253 -34.906,14.141 -38,14C-38,2.614 -33.165,4.019 -23.5,2.5C-22.136,2.25 -20.772,2 -19.367,1.742C-12.777,0.578 -6.712,0 0,0Z" style="fill:rgb(4,254,8);fill-rule:nonzero;"/>
    </g>
    <g transform="matrix(1,0,0,1,584,802)">
        <path d="M0,0C0,11.671 -5.626,10.048 -15.5,11.5C-17.689,11.875 -17.689,11.875 -19.922,12.258C-26.727,13.384 -33.088,14 -40,14C-40,0.395 -38.66,3.775 -26.75,2C-24.29,1.629 -21.831,1.258 -19.297,0.875C-12.767,0.092 -6.566,-0.162 0,0Z" style="fill:rgb(9,252,9);fill-rule:nonzero;"/>
    </g>
    <g transform="matrix(1,0,0,1,370,848)">
        <path d="M0,0L0,12L-38,12C-38,-1.85 -11.021,0 0,0Z" style="fill:rgb(236,225,0);fill-rule:nonzero;"/>
    </g>
    <g transform="matrix(1,0,0,1,434,816)">
        <path d="M0,0C2.202,14.036 2.195,27.811 2,42C-11.258,42 -7.869,25.828 -8.133,14.086C-8.113,0 -8.113,0 0,0Z" style="fill:rgb(242,253,249);fill-rule:nonzero;"/>
    </g>
    <g transform="matrix(1,0,0,1,884,300)">
        <path d="M0,0C3.04,3.04 2.265,5.792 2.25,10C2.255,11.444 2.26,12.887 2.266,14.375C1.812,20.56 0.41,19.974 -5.875,20.375C-14.995,19.817 -15.9,17.894 -16.375,8.875C-15.726,-3.02 -10.691,-0.382 0,0Z" style="fill:rgb(253,48,11);fill-rule:nonzero;"/>
    </g>
    <g transform="matrix(1,0,0,1,284,444)">
        <path d="M0,0C6.19,6.19 4.408,11.438 4,20C0.08,23.92 -6.787,22.095 -12,22C-12.054,19.084 -12.093,16.167 -12.125,13.25C-12.148,11.626 -12.171,10.002 -12.195,8.328C-11.781,-0.863 -8.359,-0.815 0,0Z" style="fill:rgb(214,253,254);fill-rule:nonzero;"/>
    </g>
    <g transform="matrix(1,0,0,1,213.758,844.438)">
        <path d="M0,0C5.873,2.163 5.871,4.862 8.117,10.563C17.618,26.464 41.97,22.016 58.242,21.563C58.242,25.846 38.232,24.435 34.117,24.563C31.85,24.697 29.582,24.831 27.246,24.969C11.666,25.332 1.197,22.649 -5.758,7.563C-4.558,-0.531 -4.558,-0.531 0,0Z" style="fill:rgb(203,243,248);fill-rule:nonzero;"/>
    </g>
    <g transform="matrix(1,0,0,1,652,672)">
        <rect x="0" y="0" width="26" height="12" style="fill:rgb(225,62,12);fill-rule:nonzero;"/>
    </g>
    <g transform="matrix(1,0,0,1,302,388)">
        <path d="M0,0C9.612,0.721 9.612,0.721 11.25,6.125C8.773,17.765 4.604,28 -8,28C-9.04,13.955 -9.04,13.955 0,10C0.667,4.832 0.667,4.832 0,0Z" style="fill:rgb(228,252,254);fill-rule:nonzero;"/>
    </g>
    <g transform="matrix(1,0,0,1,731.25,853.875)">
        <path d="M0,0C2.119,0.014 2.119,0.014 4.281,0.027C7.771,0.051 11.26,0.087 14.75,0.125L14.75,8.125L-33.25,8.125L-33.25,6.125L-19.25,6.125L-19.25,2.125C-13.119,-0.94 -6.715,-0.081 0,0Z" style="fill:rgb(0,137,244);fill-rule:nonzero;"/>
    </g>
    <g transform="matrix(1,0,0,1,722,478)">
        <path d="M0,0L20,0L20,50C34.962,49.446 34.962,49.446 49.917,48.739C63.345,48.486 68.813,48.922 70,64L62,64L62,54C47.48,53.34 32.96,52.68 18,52L18,2L0,2L0,0Z" style="fill:rgb(128,165,155);fill-rule:nonzero;"/>
    </g>
    <g transform="matrix(1,0,0,1,636,798)">
        <path d="M0,0C0,10.786 -19.525,9.769 -29.156,10.266C-32.772,10.253 -36.387,10.139 -40,10C-40,-1.987 -34.358,1.631 -24.5,1C-23.041,0.905 -21.582,0.809 -20.078,0.711C-13.364,0.284 -6.731,0 0,0Z" style="fill:rgb(21,247,4);fill-rule:nonzero;"/>
    </g>
    <g transform="matrix(1,0,0,1,662,846)">
        <path d="M0,0C-0.97,8 -0.97,8 -6,8C-5.34,10.64 -4.68,13.28 -4,16C-20,16 -20,16 -21,9.25C-19.57,-1.119 -9.592,-4.796 0,0Z" style="fill:rgb(65,254,253);fill-rule:nonzero;"/>
    </g>
    <g transform="matrix(1,0,0,1,330,818)">
        <path d="M0,0C0,2 0,2 -5.703,2.227C-9.439,2.424 -9.439,2.424 -13.25,2.625C-16.939,2.799 -16.939,2.799 -20.703,2.977C-28.319,4.045 -33.29,6.375 -40,10C-45.75,10.375 -45.75,10.375 -50,10C-50,-7.15 -13.534,-3.929 0,0Z" style="fill:rgb(78,251,3);fill-rule:nonzero;"/>
    </g>
    <g transform="matrix(1,0,0,1,182,718)">
        <path d="M0,0L4,0L4,4L14,4C14.66,9.28 15.32,14.56 16,20L0,20L0,0Z" style="fill:rgb(190,242,156);fill-rule:nonzero;"/>
    </g>
    <g transform="matrix(1,0,0,1,682,832)">
        <path d="M0,0C0,9.9 -19.269,8.827 -26.75,9.25C-30.486,9.474 -30.486,9.474 -34.297,9.703C-37.12,9.85 -37.12,9.85 -40,10C-40,-1.737 -35.269,1.664 -25.625,1C-24.278,0.905 -22.931,0.809 -21.543,0.711C-14.347,0.22 -7.213,-0.112 0,0Z" style="fill:rgb(252,147,228);fill-rule:nonzero;"/>
    </g>
    <g transform="matrix(1,0,0,1,759.625,815.75)">
        <path d="M0,0C2.371,0.054 2.371,0.054 4.789,0.109C5.972,0.156 7.156,0.202 8.375,0.25C2.938,16.561 -28.214,9.68 -41.625,8.25C-41.625,6.25 -41.625,6.25 -37.164,5.953C-35.212,5.804 -33.261,5.654 -31.25,5.5C-29.324,5.361 -27.398,5.222 -25.414,5.078C-19.618,4.483 -19.618,4.483 -14.5,2.188C-9.255,0.103 -5.603,-0.167 0,0Z" style="fill:rgb(222,198,240);fill-rule:nonzero;"/>
    </g>
    <g transform="matrix(1,0,0,1,390.375,333.75)">
        <path d="M0,0C3.774,0.124 3.774,0.124 7.625,0.25C7.625,11.505 2.71,13.325 -7.875,15.25C-14.667,13.741 -14.375,10.779 -14.375,4.25C-8.197,0.131 -6.956,-0.228 0,0Z" style="fill:rgb(223,253,254);fill-rule:nonzero;"/>
    </g>
    <g transform="matrix(1,0,0,1,548,612)">
        <path d="M0,0L14,0L14,4L76,4C64.239,9.881 52.902,8.418 40,8C37.87,7.942 37.87,7.942 35.697,7.883C31.379,7.752 27.066,7.572 22.75,7.375C20.125,7.259 17.501,7.143 14.797,7.023C7.913,5.987 4.98,4.715 0,0Z" style="fill:rgb(222,231,182);fill-rule:nonzero;"/>
    </g>
    <g transform="matrix(1,0,0,1,434.625,787.5)">
        <path d="M0,0C1.972,-0.093 3.945,-0.186 5.977,-0.281C12.75,0.699 14.04,2.718 17.375,8.5C15.024,9.243 15.024,9.243 12.625,10C6.556,12.89 6.034,14.611 3.375,20.5C1.395,21.16 -0.585,21.82 -2.625,22.5C-3.472,12.97 -3.196,9.321 5.375,4.5C0.095,3.84 -5.185,3.18 -10.625,2.5C-10.625,-1.537 -3.005,0.109 0,0Z" style="fill:rgb(206,250,229);fill-rule:nonzero;"/>
    </g>
    <g transform="matrix(1,0,0,1,376,792)">
        <path d="M0,0L34,0C31.049,8.854 26.97,7.635 18.125,9C14.324,9.65 14.324,9.65 10.445,10.313C4,10 4,10 0,0Z" style="fill:rgb(69,245,6);fill-rule:nonzero;"/>
    </g>
    <g transform="matrix(1,0,0,1,566,674)">
        <rect x="0" y="0" width="22" height="10" style="fill:rgb(173,202,0);fill-rule:nonzero;"/>
    </g>
    <g transform="matrix(1,0,0,1,224,808)">
        <path d="M0,0C0.5,15.5 0.5,15.5 -4,20C-12,20 -12,20 -12.125,13.375C-11.931,1.952 -11.482,-0.883 0,0Z" style="fill:rgb(252,252,216);fill-rule:nonzero;"/>
    </g>
    <g transform="matrix(1,0,0,1,292,418)">
        <path d="M0,0C3.768,3.768 2.304,9.032 2,14C-3.345,19.345 -5.065,17.825 -12,16C-9.97,-0.243 -9.97,-0.243 0,0Z" style="fill:rgb(232,252,254);fill-rule:nonzero;"/>
    </g>
    <g transform="matrix(1,0,0,1,673.125,215.875)">
        <path d="M0,0C1.653,0.018 3.305,0.036 5.008,0.055C8.875,0.125 8.875,0.125 8.875,10.125L-15.125,10.125C-9.992,-0.141 -9.992,-0.141 0,0Z" style="fill:rgb(23,23,53);fill-rule:nonzero;"/>
    </g>
    <g transform="matrix(1,0,0,1,208,830)">
        <path d="M0,0L0,4C1.031,3.67 2.063,3.34 3.125,3C9.467,1.699 15.544,1.876 22,2C22,6.279 9.679,6.983 5.625,7.875C-3.909,9.977 -13.041,11.996 -22,16C-22,6.256 -21.611,6.823 -13.25,3.5C-11.626,2.83 -10.002,2.159 -8.328,1.469C-4,0 -4,0 0,0Z" style="fill:rgb(86,251,0);fill-rule:nonzero;"/>
    </g>
    <g transform="matrix(1,0,0,1,370,794)">
        <path d="M0,0C12.419,3.105 12.519,8.321 12,20L0,20L0,0Z" style="fill:rgb(243,252,238);fill-rule:nonzero;"/>
    </g>
    <g transform="matrix(1,0,0,1,760,814)">
        <path d="M0,0C0,5.185 -17.807,5.985 -22.266,6.328C-31.024,6.431 -39.392,5.435 -48,4C-48,-4.302 -7.484,-1.276 0,0Z" style="fill:rgb(248,233,215);fill-rule:nonzero;"/>
    </g>
    <g transform="matrix(1,0,0,1,686,672)">
        <rect x="0" y="0" width="16" height="12" style="fill:rgb(228,106,21);fill-rule:nonzero;"/>
    </g>
    <g transform="matrix(1,0,0,1,225.875,836.75)">
        <path d="M0,0C1.368,0.113 2.735,0.227 4.145,0.344C14.125,1.181 14.125,1.181 14.125,3.25L-13.875,3.25L-13.875,7.25C-25.755,8.24 -25.755,8.24 -37.875,9.25C-25.34,-0.151 -15.398,-1.363 0,0Z" style="fill:rgb(18,252,65);fill-rule:nonzero;"/>
    </g>
    <g transform="matrix(1,0,0,1,320,798)">
        <path d="M0,0C8,0 8,0 10,6C10.079,10.666 10.088,15.334 10,20L0,20L0,0Z" style="fill:rgb(249,252,216);fill-rule:nonzero;"/>
    </g>
    <g transform="matrix(1,0,0,1,912,754)">
        <path d="M0,0C8.031,3.239 13.596,8.862 19.625,14.875C21.17,16.346 21.17,16.346 22.746,17.848C30.24,25.281 30.24,25.281 28,32C0,7.965 0,7.965 0,0Z" style="fill:rgb(102,113,138);fill-rule:nonzero;"/>
    </g>
    <g transform="matrix(1,0,0,1,938,874)">
        <path d="M0,0C5.919,5.51 10.074,10.933 14,18C-1.75,18.25 -1.75,18.25 -4,16C-4.081,12.668 -4.085,9.332 -4,6L0,6L0,0Z" style="fill:rgb(100,190,140);fill-rule:nonzero;"/>
    </g>
    <g transform="matrix(1,0,0,1,192,812)">
        <path d="M0,0C12,9.5 12,9.5 12,14C5.96,18.027 1.146,18.397 -6,18C-4.885,11.313 -3.297,5.934 0,0Z" style="fill:rgb(197,217,13);fill-rule:nonzero;"/>
    </g>
    <g transform="matrix(1,0,0,1,560,670)">
        <path d="M0,0C8,2 8,2 6,14L48,14L48,16L0,16L0,0Z" style="fill:rgb(47,74,108);fill-rule:nonzero;"/>
    </g>
    <g transform="matrix(1,0,0,1,342,818)">
        <path d="M0,0C-7.2,4.335 -14.108,5.106 -22.375,6.125C-30.839,6.475 -30.839,6.475 -38,10C-42.666,10.082 -47.334,10.085 -52,10C-42.561,3.707 -37.758,1.405 -26.375,0.75C-23.97,0.6 -21.564,0.451 -19.086,0.297C-12.712,0.03 -6.378,-0.059 0,0Z" style="fill:rgb(17,254,52);fill-rule:nonzero;"/>
    </g>
    <g transform="matrix(1,0,0,1,330,854)">
        <path d="M0,0C0.66,1.98 1.32,3.96 2,6C6.068,6.838 6.068,6.838 10.945,6.586C12.744,6.567 14.542,6.547 16.395,6.527C19.231,6.452 19.231,6.452 22.125,6.375C24.024,6.348 25.923,6.321 27.879,6.293C32.587,6.222 37.293,6.123 42,6L42,10C40.872,9.99 39.744,9.979 38.582,9.968C33.388,9.926 28.194,9.901 23,9.875C20.339,9.85 20.339,9.85 17.625,9.824C6.884,9.785 -3.373,10.423 -14,12L-14,8C-17.961,6.676 -17.961,6.676 -22,6C-13.414,3.475 -8.243,4.741 0,8L0,0Z" style="fill:rgb(243,200,24);fill-rule:nonzero;"/>
    </g>
    <g transform="matrix(1,0,0,1,604,864)">
        <path d="M0,0L-24,0C-20.02,-15.92 -7.946,-10.595 0,0Z" style="fill:rgb(101,250,236);fill-rule:nonzero;"/>
    </g>
    <g transform="matrix(1,0,0,1,124.875,673.75)">
        <path d="M0,0C10.549,0.515 7.257,12.081 7.125,20.25C-1.217,20.25 -0.768,17.8 -2.875,10.25C-2.215,8.27 -1.555,6.29 -0.875,4.25L-4.875,4.25C-4.875,0.25 -4.875,0.25 0,0Z" style="fill:rgb(226,172,222);fill-rule:nonzero;"/>
    </g>
    <g transform="matrix(1,0,0,1,372,342)">
        <path d="M0,0C0.962,9.863 0.962,9.863 -14,12C-14.787,2.033 -10.706,-5.538 0,0Z" style="fill:rgb(222,253,254);fill-rule:nonzero;"/>
    </g>
    <g transform="matrix(1,0,0,1,292,676)">
        <rect x="0" y="0" width="6" height="26" style="fill:rgb(129,172,134);fill-rule:nonzero;"/>
    </g>
    <g transform="matrix(1,0,0,1,552,658)">
        <rect x="0" y="0" width="6" height="26" style="fill:rgb(227,248,171);fill-rule:nonzero;"/>
    </g>
    <g transform="matrix(1,0,0,1,433.125,789.375)">
        <path d="M0,0C2.024,0.09 4.048,0.18 6.133,0.273C7.698,0.389 9.263,0.505 10.875,0.625C3.109,7.921 -2.549,9.796 -13.125,10.625C-12.484,0.195 -10.15,-0.583 0,0Z" style="fill:rgb(4,251,15);fill-rule:nonzero;"/>
    </g>
    <g transform="matrix(1,0,0,1,630,672)">
        <path d="M0,0L18,0L18,4L10,4L10,12L0,12L0,0Z" style="fill:rgb(190,158,10);fill-rule:nonzero;"/>
    </g>
    <g transform="matrix(1,0,0,1,638,848)">
        <path d="M0,0L0,6L-4,6L-4,14L-34,14C-34,5.231 -16.743,10.673 -8,10L-8,4L-22,4C-22,0.226 -16.318,1.348 -13.25,1C-11.626,0.814 -10.002,0.629 -8.328,0.438C-4,0 -4,0 0,0Z" style="fill:rgb(91,251,251);fill-rule:nonzero;"/>
    </g>
    <g transform="matrix(1,0,0,1,740,826)">
        <path d="M0,0C-2,4 -2,4 -8,4L-8,8L-34,8C-34,0.797 -5.52,-0.448 0,0Z" style="fill:rgb(233,243,232);fill-rule:nonzero;"/>
    </g>
    <g transform="matrix(1,0,0,1,684,822)">
        <path d="M0,0C-2.644,7.933 -4.255,7.08 -12.125,8.375C-14.882,8.851 -14.882,8.851 -17.695,9.336C-19.116,9.555 -20.536,9.774 -22,10L-22,6C-23.98,4.68 -25.96,3.36 -28,2C-18.474,0.095 -9.667,-0.167 0,0Z" style="fill:rgb(236,241,200);fill-rule:nonzero;"/>
    </g>
    <g transform="matrix(1,0,0,1,730.875,851.875)">
        <path d="M0,0C2.195,0.014 2.195,0.014 4.434,0.027C7.997,0.051 11.561,0.086 15.125,0.125C15.125,11.536 -7.483,3.455 -18.875,4.125L-18.875,8.125L-30.875,8.125C-30.875,-3.209 -9.595,-0.114 0,0Z" style="fill:rgb(1,214,237);fill-rule:nonzero;"/>
    </g>
    <g transform="matrix(1,0,0,1,896,802)">
        <path d="M0,0C9.489,9.489 16.058,17.846 22,30C18,32 18,32 14.625,25.625C11.579,20.21 9.073,17.094 4.5,12.625C0,8 0,8 0,0Z" style="fill:rgb(100,161,137);fill-rule:nonzero;"/>
    </g>
    <g transform="matrix(1,0,0,1,908,274)">
        <path d="M0,0L0,12C-11.5,8.5 -11.5,8.5 -16,4C-12.639,-2.721 -6.821,-0.248 0,0Z" style="fill:rgb(237,164,235);fill-rule:nonzero;"/>
    </g>
    <g transform="matrix(1,0,0,1,318,870)">
        <path d="M0,0L-20,0C-20,-12.513 -2.812,-11.248 0,0Z" style="fill:rgb(246,141,9);fill-rule:nonzero;"/>
    </g>
    <g transform="matrix(1,0,0,1,598,852)">
        <path d="M0,0C0,4.267 -11.113,4.405 -15,5.125C-17.088,5.541 -17.088,5.541 -19.219,5.965C-28.962,7.796 -38.088,8.257 -48,8C-48,3.78 -37.892,3.621 -34.125,2.875C-32.762,2.602 -31.4,2.329 -29.996,2.048C-19.761,0.104 -10.371,-0.546 0,0Z" style="fill:rgb(243,235,249);fill-rule:nonzero;"/>
    </g>
    <g transform="matrix(1,0,0,1,354,354)">
        <path d="M0,0C0,10.227 -0.845,9.085 -10,10C-12.534,-0.979 -11.809,-3.936 0,0Z" style="fill:rgb(210,253,254);fill-rule:nonzero;"/>
    </g>
    <g transform="matrix(1,0,0,1,540,866)">
        <path d="M0,0C-2.93,8.791 -6.351,6.949 -15.125,7.375C-17.52,7.506 -19.915,7.638 -22.383,7.773C-25.163,7.886 -25.163,7.886 -28,8C-23.369,-1.261 -9.207,-0.449 0,0Z" style="fill:rgb(249,245,248);fill-rule:nonzero;"/>
    </g>
    <g transform="matrix(1,0,0,1,640,676)">
        <path d="M0,0L8,0L8,10L-24,10L-24,8L0,8L0,0Z" style="fill:rgb(58,126,107);fill-rule:nonzero;"/>
    </g>
    <g transform="matrix(1,0,0,1,332,370)">
        <path d="M0,0C-0.733,9.53 -2.47,11.267 -12,12C-9.846,0 -9.846,0 0,0Z" style="fill:rgb(215,249,253);fill-rule:nonzero;"/>
    </g>
    <g transform="matrix(1,0,0,1,724,854)">
        <path d="M0,0L0,8L-26,8L-26,6L-12,6L-12,2C-8,0 -8,0 0,0Z" style="fill:rgb(62,167,237);fill-rule:nonzero;"/>
    </g>
    <g transform="matrix(1,0,0,1,228,810)">
        <path d="M0,0C3.529,6.176 4,8.466 4,16C-1,17.5 -1,17.5 -6,18C-4,4 -4,4 0,4L0,0Z" style="fill:rgb(242,240,18);fill-rule:nonzero;"/>
    </g>
    <g transform="matrix(1,0,0,1,646,798)">
        <path d="M0,0L28,0C28,5.39 8.359,6.067 3.875,6.25C0,6 0,6 0,0Z" style="fill:rgb(105,236,37);fill-rule:nonzero;"/>
    </g>
    <g transform="matrix(1,0,0,1,764,824)">
        <path d="M0,0C-3.137,6.273 -7.446,4.828 -14.125,5.25C-16.334,5.4 -18.544,5.549 -20.82,5.703C-22.53,5.801 -24.239,5.899 -26,6C-23.136,0.271 -20.26,0.796 -14.125,-0.375C-12.333,-0.733 -10.541,-1.092 -8.695,-1.461C-4,-2 -4,-2 0,0Z" style="fill:rgb(252,250,241);fill-rule:nonzero;"/>
    </g>
    <g transform="matrix(1,0,0,1,634,844)">
        <path d="M0,0C0,6 0,6 -24,8C-15.954,-0.046 -11.081,-0.308 0,0Z" style="fill:rgb(240,233,252);fill-rule:nonzero;"/>
    </g>
    <g transform="matrix(1,0,0,1,652,672)">
        <rect x="0" y="0" width="8" height="12" style="fill:rgb(197,192,8);fill-rule:nonzero;"/>
    </g>
    <g transform="matrix(1,0,0,1,616,670)">
        <path d="M0,0L32,0L32,2C30.579,1.93 29.159,1.861 27.695,1.789C25.857,1.735 24.019,1.681 22.125,1.625C20.292,1.555 18.459,1.486 16.57,1.414C11.197,1.405 11.197,1.405 10,8C6.7,5.36 3.4,2.72 0,0Z" style="fill:rgb(65,52,73);fill-rule:nonzero;"/>
    </g>
    <g transform="matrix(1,0,0,1,654,852)">
        <path d="M0,0C2.375,5 2.375,5 4,10L-8,10C-6.75,0 -6.75,0 0,0Z" style="fill:rgb(168,253,251);fill-rule:nonzero;"/>
    </g>
    <g transform="matrix(1,0,0,1,280,852)">
        <path d="M0,0L10,0C8.02,0.99 8.02,0.99 6,2C6.657,7.119 6.657,7.119 8,12L0,12L0,0Z" style="fill:rgb(3,226,157);fill-rule:nonzero;"/>
    </g>
    <g transform="matrix(1,0,0,1,638,848)">
        <path d="M0,0C6.341,3.171 4.277,7.483 4,14L-4,14L-4,6L0,6L0,0Z" style="fill:rgb(220,249,250);fill-rule:nonzero;"/>
    </g>
    <g transform="matrix(1,0,0,1,842,818)">
        <path d="M0,0C0,8.769 -17.257,3.327 -26,4C-23.36,2.68 -20.72,1.36 -18,0C-13.991,-4.009 -5.017,-0.717 0,0Z" style="fill:rgb(227,252,253);fill-rule:nonzero;"/>
    </g>
    <g transform="matrix(1,0,0,1,702,672)">
        <rect x="0" y="0" width="6" height="14" style="fill:rgb(13,164,99);fill-rule:nonzero;"/>
    </g>
    <g transform="matrix(1,0,0,1,210,838)">
        <path d="M0,0L0,4L-10,4L-10,8L-22,8C-14.412,1.982 -9.939,0 0,0Z" style="fill:rgb(43,250,32);fill-rule:nonzero;"/>
    </g>
    <g transform="matrix(1,0,0,1,928,770)">
        <path d="M0,0C15.08,6.76 15.08,6.76 12,16C9.988,14.096 7.991,12.176 6,10.25C4.886,9.183 3.773,8.115 2.625,7.016C0,4 0,4 0,0Z" style="fill:rgb(94,99,127);fill-rule:nonzero;"/>
    </g>
    <g transform="matrix(1,0,0,1,768,542)">
        <path d="M0,0L22,0C15.558,4.295 11.659,5.511 4,6C2.68,4.02 1.36,2.04 0,0Z" style="fill:rgb(192,203,204);fill-rule:nonzero;"/>
    </g>
    <g transform="matrix(1,0,0,1,582,858)">
        <path d="M0,0C-2.664,7.991 -3.451,6.564 -11.125,5.375C-12.778,5.135 -14.43,4.895 -16.133,4.648C-17.409,4.434 -18.685,4.22 -20,4C-13.857,-2.143 -8.49,-0.274 0,0Z" style="fill:rgb(171,254,243);fill-rule:nonzero;"/>
    </g>
    <g transform="matrix(1,0,0,1,664,828)">
        <path d="M0,0C-3.464,6.928 -10.854,4.227 -18,4C-14.18,-3.64 -7.26,-2.334 0,0Z" style="fill:rgb(240,248,249);fill-rule:nonzero;"/>
    </g>
    <g transform="matrix(1,0,0,1,608,672)">
        <path d="M0,0L8,0L8,12C2,12 2,12 0,0Z" style="fill:rgb(66,84,88);fill-rule:nonzero;"/>
    </g>
    <g transform="matrix(1,0,0,1,208,824)">
        <path d="M0,0L4,0L4,4C5.526,3.588 7.053,3.175 8.625,2.75C14,2 14,2 20,6C13.4,6.66 6.8,7.32 0,8L0,0Z" style="fill:rgb(209,223,12);fill-rule:nonzero;"/>
    </g>
    <g transform="matrix(1,0,0,1,672,672)">
        <rect x="0" y="0" width="6" height="12" style="fill:rgb(181,164,4);fill-rule:nonzero;"/>
    </g>
    <g transform="matrix(1,0,0,1,686,672)">
        <rect x="0" y="0" width="6" height="12" style="fill:rgb(202,175,1);fill-rule:nonzero;"/>
    </g>
    <g transform="matrix(1,0,0,1,186,840)">
        <path d="M0,0L0,6L-12,6C-9.3,-2.1 -7.823,-0.602 0,0Z" style="fill:rgb(121,242,16);fill-rule:nonzero;"/>
    </g>
    <g transform="matrix(1,0,0,1,408,790)">
        <path d="M0,0L10,0L10,8C1,8 1,8 0,0Z" style="fill:rgb(225,239,154);fill-rule:nonzero;"/>
    </g>
</svg>
